<?xml version="1.0" encoding="utf-8"?>
<!-- Generator: Adobe Illustrator 27.5.0, SVG Export Plug-In . SVG Version: 6.00 Build 0)  -->
<svg version="1.1" id="Capa_1" xmlns="http://www.w3.org/2000/svg" xmlns:xlink="http://www.w3.org/1999/xlink" x="0px" y="0px"
	 viewBox="0 0 2122 2122" style="enable-background:new 0 0 2122 2122;" xml:space="preserve">
<g>
	<path style="fill:#8A4F45;" d="M1982.459,1329.944c-3.825-11.625-21.369-6.349-31.167,0.984
		c-15.137,11.323-30.272,22.646-45.41,33.968c-4.251,3.182-16.624,9.516-20.911,3.625c-1.498-2.056-1.225-4.999-0.01-7.235
		c9.803-18.012,22.826-34.792,32.402-53.33c10.419-20.18,19.53-41.028,27.247-62.382c3.676-10.172,5.411-24.574-4.456-29.008
		c-7.534-3.391-15.939,2.294-21.72,8.199c-33.286,34.012-41.956,84.093-73.876,118.612c-6.965,7.532-14.205,8.004-12.285-2.319
		c1.829-9.827,9.286-20.891,13.162-30.202c12.996-31.235,24.253-62.456,31.403-95.537c1.352-6.246,2.577-12.838,0.655-18.933
		c-1.919-6.095-8.087-11.343-14.326-9.964c-4.414,0.974-7.549,4.799-10.183,8.472c-17.783,24.814-27.868,54.212-40.19,81.88
		c-8.333,18.714-16.787,37.964-29.756,54.032c-3.576,4.429-19.545,26.573-25.415,16.273c-0.965-1.695-1.203-3.693-1.388-5.637
		c-2.519-26.621,5.983-61.394-9.583-85.165c-5.445-8.312-17.255-13.349-25.657-8.039c-3.766,2.378-6.217,6.358-8.08,10.407
		c-6,13.023-7.15,27.678-8.207,41.983c-2.477,33.432-5.04,66.855-7.432,100.292c-0.324,4.541-1.335,10.159-2.476,16.267
		l-20.189-20.067c-49.939,73.155-107.707,150.991-193.425,173.286c-45.988,11.961-94.982,4.731-137.705-15.099
		c-41.51-19.269-73.357-57.427-111.242-82.908c-59.128-39.79-123.983-71.601-192.336-92.029c-3.322-0.993-6.675-1.901-10.046-2.758
		c-3.219-17.913-4.657-36.241-5.123-54.44c-0.236-9.239-0.275-18.606-0.727-27.902c20.046-2.874,39.657-7.228,58.706-13.025
		c123.401-37.498,223.837-133.934,273.505-259.293c22.167,11.095,51.134,12.615,86.336-0.272
		c35.491-12.994,65.127-39.045,87.571-69.462c28.584-38.697,46.547-85.132,51.456-132.989c2.743-26.769,1.325-54.577-9.168-79.357
		c-10.497-24.776-31.085-46.207-57.101-53.087c-35.491-9.391-72.449,9.168-101.033,32.227c-11.853,9.57-22.983,20.031-33.297,31.25
		c-4.223-21.788-9.882-43.018-16.892-63.531c-3.744-10.964-7.91-21.707-12.399-32.255c0.357-0.013,0.71-0.053,1.066-0.069
		c1.568-0.071,3.13-0.164,4.686-0.303c1.179-0.106,2.353-0.241,3.524-0.387c1.535-0.191,3.059-0.416,4.578-0.677
		c1.164-0.2,2.325-0.416,3.478-0.657c1.508-0.316,3-0.68,4.488-1.068c1.128-0.294,2.255-0.589,3.37-0.925
		c1.495-0.451,2.966-0.967,4.434-1.495c1.066-0.383,2.136-0.751,3.187-1.176c1.509-0.609,2.982-1.303,4.456-1.998
		c0.963-0.455,1.94-0.876,2.886-1.368c1.601-0.832,3.153-1.768,4.704-2.708c0.769-0.466,1.563-0.883,2.319-1.376
		c2.28-1.487,4.506-3.082,6.654-4.818c2.188-1.769,4.232-3.689,6.147-5.724c0.642-0.682,1.187-1.446,1.798-2.154
		c1.211-1.405,2.434-2.799,3.524-4.301c0.661-0.911,1.221-1.892,1.837-2.835c0.913-1.398,1.847-2.778,2.662-4.24
		c0.583-1.048,1.071-2.148,1.603-3.225c0.712-1.438,1.44-2.863,2.06-4.347c0.48-1.149,0.87-2.336,1.296-3.508
		c0.534-1.474,1.078-2.938,1.525-4.443c0.363-1.22,0.644-2.463,0.948-3.699c0.37-1.502,0.743-2.997,1.028-4.518
		c0.237-1.266,0.401-2.542,0.578-3.817c0.212-1.515,0.417-3.024,0.543-4.545c0.107-1.29,0.151-2.578,0.198-3.868
		c0.034-0.956,0.146-1.913,0.147-2.867c0.001-0.868-0.042-1.731-0.069-2.595c-0.01-0.334-0.012-0.669-0.027-1.002
		c-0.109-2.511-0.347-5.001-0.692-7.467c-0.05-0.364-0.098-0.728-0.154-1.09c-0.376-2.434-0.876-4.831-1.486-7.189
		c-0.095-0.367-0.19-0.733-0.291-1.098c-0.646-2.338-1.407-4.625-2.286-6.855c-0.136-0.345-0.278-0.686-0.42-1.029
		c-0.92-2.219-1.952-4.376-3.11-6.454c-0.17-0.305-0.35-0.602-0.525-0.904c-1.204-2.077-2.52-4.078-3.971-5.978
		c-0.186-0.243-0.385-0.476-0.575-0.716c-1.51-1.91-3.13-3.731-4.896-5.423c-0.175-0.168-0.365-0.323-0.542-0.488
		c-1.842-1.716-3.8-3.324-5.916-4.772c-0.122-0.084-0.255-0.156-0.379-0.239c-2.216-1.489-4.561-2.843-7.073-4.006
		c2.075-1.398,4.057-2.913,5.993-4.48c0.541-0.437,1.069-0.888,1.599-1.337c1.515-1.287,2.983-2.62,4.407-4.003
		c0.396-0.386,0.808-0.756,1.197-1.148c1.732-1.747,3.393-3.561,4.979-5.44c0.358-0.424,0.693-0.867,1.043-1.297
		c1.253-1.539,2.458-3.116,3.613-4.731c0.405-0.565,0.81-1.128,1.202-1.702c1.385-2.025,2.718-4.086,3.948-6.211
		c0.015-0.024,0.031-0.048,0.045-0.073c1.244-2.153,2.379-4.369,3.462-6.612c0.302-0.626,0.59-1.26,0.879-1.892
		c0.826-1.803,1.598-3.628,2.319-5.478c0.207-0.53,0.43-1.055,0.628-1.589c0.859-2.317,1.636-4.663,2.328-7.035
		c0.154-0.529,0.281-1.065,0.427-1.595c0.529-1.929,1.002-3.871,1.418-5.826c0.146-0.684,0.292-1.368,0.425-2.055
		c0.458-2.39,0.859-4.791,1.148-7.205c0.007-0.061,0.019-0.122,0.026-0.184c0.29-2.466,0.458-4.943,0.565-7.421
		c0.03-0.696,0.042-1.392,0.057-2.088c0.018-0.815,0.07-1.631,0.068-2.446c-0.002-0.667-0.087-1.329-0.103-1.996
		c-0.041-1.811-0.135-3.619-0.277-5.424c-0.095-1.205-0.198-2.404-0.339-3.604c-0.215-1.833-0.51-3.655-0.833-5.471
		c-0.203-1.138-0.384-2.276-0.63-3.406c-0.426-1.965-0.963-3.904-1.523-5.838c-0.273-0.944-0.494-1.9-0.799-2.836
		c-0.927-2.847-1.976-5.661-3.201-8.411c-1.059-2.374-2.246-4.678-3.508-6.935c-0.404-0.722-0.853-1.415-1.276-2.124
		c-0.907-1.52-1.839-3.02-2.833-4.481c-0.538-0.789-1.099-1.56-1.661-2.331c-0.98-1.346-1.993-2.665-3.044-3.955
		c-0.604-0.741-1.21-1.481-1.836-2.203c-1.145-1.321-2.336-2.597-3.553-3.853c-0.586-0.605-1.154-1.226-1.755-1.816
		c-1.667-1.635-3.393-3.211-5.176-4.725c-0.183-0.156-0.354-0.328-0.538-0.482c-1.993-1.668-4.06-3.246-6.178-4.757
		c-0.602-0.429-1.229-0.82-1.839-1.236c-1.54-1.049-3.097-2.07-4.693-3.035c-0.783-0.474-1.581-0.921-2.377-1.373
		c-1.49-0.847-2.995-1.66-4.525-2.432c-0.84-0.424-1.682-0.842-2.533-1.243c-1.588-0.748-3.196-1.443-4.82-2.109
		c-0.794-0.326-1.582-0.67-2.385-0.977c-2.017-0.77-4.058-1.465-6.118-2.107c-0.417-0.13-0.824-0.288-1.241-0.412
		c-2.49-0.741-5.006-1.378-7.542-1.923c-0.671-0.145-1.352-0.243-2.026-0.374c-1.865-0.361-3.734-0.688-5.616-0.94
		c-0.911-0.122-1.824-0.208-2.738-0.304c-1.675-0.176-3.35-0.315-5.031-0.403c-0.966-0.05-1.932-0.088-2.898-0.108
		c-0.653-0.014-1.305-0.073-1.958-0.073c-1.461,0-2.922,0.06-4.381,0.13c-0.255,0.012-0.509,0.008-0.762,0.023
		c-2.433,0.137-4.858,0.4-7.277,0.737c-0.582,0.081-1.164,0.172-1.745,0.265c-2.447,0.391-4.886,0.849-7.3,1.453
		c0.571-2.409,1.024-4.839,1.418-7.277c0.117-0.724,0.211-1.451,0.312-2.177c0.253-1.808,0.46-3.619,0.618-5.436
		c0.063-0.727,0.135-1.453,0.184-2.181c0.164-2.456,0.271-4.915,0.267-7.376c-0.004-2.516-0.117-5.03-0.292-7.541
		c-0.056-0.795-0.146-1.586-0.219-2.38c-0.158-1.736-0.346-3.467-0.585-5.195c-0.123-0.895-0.26-1.788-0.406-2.681
		c-0.272-1.678-0.586-3.349-0.932-5.014c-0.173-0.837-0.338-1.676-0.53-2.509c-0.459-1.989-0.978-3.963-1.542-5.925
		c-0.133-0.465-0.241-0.936-0.38-1.399c-0.725-2.412-1.533-4.798-2.411-7.16c-0.24-0.648-0.515-1.281-0.767-1.924
		c-0.673-1.718-1.373-3.422-2.126-5.106c-0.363-0.811-0.745-1.613-1.127-2.416c-0.725-1.527-1.481-3.036-2.271-4.529
		c-0.414-0.784-0.827-1.569-1.26-2.343c-0.897-1.607-1.843-3.184-2.815-4.747c-0.368-0.59-0.713-1.193-1.093-1.777
		c-1.367-2.109-2.795-4.176-4.298-6.188c-0.29-0.389-0.607-0.756-0.902-1.142c-1.239-1.614-2.513-3.2-3.839-4.744
		c-0.553-0.645-1.13-1.269-1.699-1.901c-1.137-1.263-2.298-2.501-3.493-3.711c-0.634-0.641-1.273-1.277-1.923-1.902
		c-1.257-1.208-2.552-2.377-3.868-3.522c-0.601-0.523-1.188-1.061-1.802-1.57c-1.939-1.611-3.922-3.17-5.98-4.636
		c-2.294-1.634-4.655-3.163-7.069-4.598c-0.813-0.485-1.665-0.898-2.492-1.36c-1.621-0.906-3.237-1.822-4.903-2.64
		c-1.031-0.506-2.093-0.938-3.14-1.411c-1.507-0.682-3.008-1.382-4.545-1.994c-1.135-0.453-2.297-0.834-3.448-1.248
		c-1.489-0.537-2.972-1.089-4.483-1.562c-1.199-0.376-2.416-0.685-3.627-1.02c-1.496-0.414-2.989-0.838-4.501-1.191
		c-1.242-0.29-2.495-0.52-3.747-0.768c-1.505-0.299-3.01-0.603-4.527-0.842c-1.271-0.201-2.548-0.348-3.826-0.506
		c-1.515-0.188-3.029-0.374-4.549-0.502c-1.291-0.109-2.582-0.172-3.875-0.238c-1.518-0.078-3.037-0.148-4.557-0.167
		c-0.499-0.006-0.999-0.055-1.499-0.055c-0.905,0-1.808,0.069-2.713,0.09c-1.239,0.028-2.479,0.056-3.716,0.124
		c-1.45,0.079-2.895,0.208-4.342,0.342c-1.224,0.113-2.449,0.218-3.667,0.369c-1.451,0.181-2.891,0.417-4.334,0.652
		c-1.206,0.197-2.413,0.378-3.612,0.613c-1.447,0.283-2.877,0.63-4.311,0.969c-1.171,0.277-2.348,0.532-3.509,0.846
		c-1.46,0.396-2.898,0.862-4.34,1.316c-1.108,0.349-2.225,0.668-3.321,1.052c-1.502,0.525-2.971,1.131-4.447,1.722
		c-1.006,0.403-2.027,0.768-3.021,1.201c-1.626,0.709-3.212,1.507-4.802,2.298c-0.806,0.401-1.633,0.757-2.429,1.179
		c-2.367,1.255-4.691,2.595-6.958,4.036c-15.732-48.361-60.526-85.957-110.857-93.06c-3.069-0.434-6.147-0.745-9.23-0.953
		c-1.017-0.068-2.036-0.061-3.053-0.105c-1.889-0.082-3.779-0.196-5.67-0.196c-0.183,0-0.367,0.016-0.55,0.017
		c-0.951,0.004-1.901,0.066-2.851,0.09c-2.047,0.053-4.093,0.121-6.135,0.267c-1.151,0.083-2.297,0.214-3.445,0.326
		c-1.841,0.181-3.679,0.377-5.512,0.632c-1.211,0.169-2.418,0.368-3.626,0.568c-1.768,0.294-3.528,0.617-5.285,0.979
		c-1.213,0.251-2.424,0.513-3.63,0.796c-1.756,0.411-3.499,0.865-5.238,1.344c-1.169,0.322-2.34,0.638-3.501,0.989
		c-1.802,0.546-3.584,1.149-5.364,1.766c-1.062,0.368-2.132,0.713-3.185,1.107c-2.059,0.768-4.089,1.611-6.11,2.473
		c-0.74,0.316-1.494,0.596-2.228,0.923c-2.732,1.219-5.426,2.523-8.076,3.91c-0.66,0.345-1.295,0.734-1.949,1.09
		c-1.982,1.078-3.952,2.176-5.881,3.346c-0.949,0.576-1.869,1.195-2.804,1.793c-1.597,1.021-3.186,2.051-4.74,3.135
		c-0.994,0.694-1.966,1.419-2.942,2.138c-1.448,1.067-2.88,2.15-4.285,3.272c-0.971,0.776-1.929,1.568-2.878,2.369
		c-1.365,1.152-2.703,2.331-4.021,3.536c-0.908,0.829-1.815,1.661-2.699,2.514c-1.323,1.275-2.602,2.59-3.871,3.919
		c-0.805,0.844-1.622,1.676-2.406,2.542c-1.35,1.492-2.64,3.035-3.919,4.588c-0.629,0.762-1.285,1.501-1.896,2.278
		c-1.853,2.357-3.639,4.769-5.323,7.257l-0.366-0.183c-49.993-24.597-113.015-10.912-154.237,25.596
		c-0.816-1.414-1.704-2.827-2.662-4.205c-31.688-46.078-102.416-24.094-120.218,23.237c-2.225,5.966-3.696,12.25-4.165,18.6
		c-44.209-12.111-98.501,15.549-115.575,61.011c-4.566,12.161-6.742,25.32-5.257,38.229c2.43,21.008,15.103,39.424,32.414,51.603
		c-18.582,9.882-33.628,26.537-40.66,46.403c-10.368,29.311-2.773,64.187,18.831,86.532c-21.422,34.88-10.167,85.846,23.946,108.454
		c11.514,7.631,24.989,11.52,38.695,12.154c-4.059,9.917-7.829,20.002-11.235,30.276c-5.69,17.15-10.458,34.751-14.212,52.784v0.035
		c-14.773-19.558-32.788-36.503-54.104-48.427c-101.925-57.101-166.397,33.547-152.64,130.197
		c8.647,60.673,35.687,118.581,76.673,164.137c24.543,27.295,58.095,51.491,94.617,47.852c20.757-2.069,39.643-13.293,53.783-28.825
		c51.465,142.418,167.678,249.967,309.687,280.785c-0.056,1.459-0.11,2.918-0.211,4.37c-1.978,28.256-6.519,56.732-11.316,85.095
		c-84.998,20.309-166.682,68.023-218.962,128.084c-47.181,54.197-70.638,125.286-82.799,196.107
		c-8.575,49.866-23.057,100.58-19.269,151.645c4.441,59.834,36.18,83.142,86.1,109.427c0.923,0.507,1.866,0.999,2.809,1.486
		c21.082,11.021,43.033,21.228,65.618,30.47c144.738,59.327,315.251,78.85,449.822,12.926
		c56.606-27.732,106.853-70.601,146.134-131.98c19.593-30.631,21.442-66.211,20.483-101.559c-0.273-10.061-0.78-20.083-1.16-29.983
		c76.455,17.583,158.948,10.607,232.651-17.383c101.978-38.714,187.352-115.011,247.132-206.236l-16.514-16.404l-1.611-1.604
		c21.282-7.187,40.784-20.224,58.953-33.363c27.432-19.839,54.007-40.862,79.625-63.001c21.995-19.001,44.577-38.641,58.263-64.794
		C1981.952,1339.376,1983.95,1334.479,1982.459,1329.944z"/>
	<path style="fill:#FAB956;" d="M1784.508,1506.368l-1.611-1.604l-5.656-5.631l-82.442-81.945l-20.189-20.067
		c-49.939,73.155-107.707,150.991-193.425,173.286c-45.988,11.961-94.982,4.731-137.705-15.099
		c-41.51-19.269-73.357-57.427-111.242-82.908c-59.128-39.79-123.983-71.601-192.336-92.029c-3.322-0.993-6.675-1.901-10.046-2.758
		c0.074,0.414,0.167,0.824,0.243,1.237c2.967,16.068,7.36,31.798,13.956,46.754c1.701,3.858,3.584,7.922,3.035,12.102
		c-0.407,3.118-2.136,5.89-3.922,8.482c-35.101,50.865-112.899,65.729-164.282,31.395c-6.297-4.204-12.434-9.335-15.242-16.37
		c-2.901-7.274-1.82-15.45-0.694-23.196c2.686-18.482,5.936-37.117,9.106-55.804c0.137-0.814,0.271-1.629,0.409-2.443
		c-84.998,20.309-166.682,68.023-218.962,128.084c-47.181,54.197-70.638,125.286-82.799,196.107
		c-8.575,49.866-23.057,100.58-19.269,151.645c4.441,59.834,36.18,83.142,86.1,109.427c0.923,0.507,1.866,0.999,2.809,1.486
		c21.082,11.021,43.033,21.228,65.618,30.47c144.738,59.327,315.251,78.85,449.822,12.926
		c56.606-27.732,106.853-70.601,146.134-131.98c19.593-30.631,21.442-66.211,20.483-101.559c-0.273-10.061-0.78-20.083-1.16-29.983
		c76.455,17.583,158.948,10.607,232.651-17.383c101.978-38.714,187.352-115.011,247.132-206.236L1784.508,1506.368z"/>
	<path style="fill:#3D2D5E;" d="M1440.673,437.207c-0.041-1.811-0.135-3.619-0.277-5.424c-0.095-1.205-0.198-2.404-0.339-3.604
		c-0.215-1.833-0.51-3.655-0.833-5.471c-0.203-1.138-0.384-2.276-0.63-3.406c-0.426-1.965-0.963-3.904-1.523-5.838
		c-0.273-0.944-0.494-1.9-0.799-2.836c-0.927-2.847-1.976-5.661-3.201-8.411c-1.059-2.374-2.246-4.678-3.508-6.935
		c-0.404-0.722-0.853-1.415-1.276-2.124c-0.907-1.52-1.839-3.02-2.833-4.481c-0.538-0.789-1.099-1.56-1.661-2.331
		c-0.98-1.346-1.993-2.665-3.044-3.955c-0.604-0.741-1.21-1.481-1.836-2.203c-1.145-1.321-2.336-2.597-3.553-3.853
		c-0.586-0.605-1.154-1.226-1.755-1.816c-1.667-1.635-3.393-3.211-5.176-4.725c-0.183-0.156-0.354-0.328-0.538-0.482
		c-1.993-1.668-4.06-3.246-6.178-4.757c-0.602-0.429-1.229-0.82-1.839-1.236c-1.54-1.049-3.097-2.07-4.693-3.035
		c-0.783-0.474-1.581-0.921-2.377-1.373c-1.49-0.847-2.995-1.66-4.525-2.432c-0.84-0.424-1.682-0.842-2.533-1.243
		c-1.588-0.748-3.196-1.443-4.82-2.109c-0.794-0.326-1.582-0.67-2.385-0.977c-2.017-0.77-4.058-1.465-6.118-2.107
		c-0.417-0.13-0.824-0.288-1.241-0.412c-2.49-0.741-5.006-1.378-7.542-1.923c-0.671-0.145-1.352-0.243-2.026-0.374
		c-1.865-0.361-3.734-0.688-5.616-0.94c-0.911-0.122-1.824-0.208-2.738-0.304c-1.675-0.176-3.35-0.315-5.031-0.403
		c-0.966-0.05-1.932-0.088-2.898-0.108c-0.653-0.014-1.305-0.073-1.958-0.073c-1.461,0-2.922,0.06-4.381,0.13
		c-0.255,0.012-0.509,0.008-0.762,0.023c-2.433,0.137-4.858,0.4-7.277,0.737c-0.582,0.081-1.164,0.172-1.745,0.265
		c-2.447,0.391-4.886,0.849-7.3,1.453c0.571-2.409,1.024-4.839,1.418-7.277c0.117-0.724,0.211-1.451,0.312-2.177
		c0.253-1.808,0.46-3.619,0.618-5.436c0.063-0.727,0.135-1.453,0.184-2.181c0.164-2.456,0.271-4.915,0.267-7.376
		c-0.004-2.516-0.117-5.03-0.292-7.541c-0.056-0.795-0.146-1.586-0.219-2.38c-0.158-1.736-0.346-3.467-0.585-5.195
		c-0.123-0.895-0.26-1.788-0.406-2.681c-0.272-1.678-0.586-3.349-0.932-5.014c-0.173-0.837-0.338-1.676-0.53-2.509
		c-0.459-1.989-0.978-3.963-1.542-5.925c-0.133-0.465-0.241-0.936-0.38-1.399c-0.725-2.412-1.533-4.798-2.411-7.16
		c-0.24-0.648-0.515-1.281-0.767-1.924c-0.673-1.718-1.373-3.422-2.126-5.106c-0.363-0.811-0.745-1.613-1.127-2.416
		c-0.725-1.527-1.481-3.036-2.271-4.529c-0.414-0.784-0.827-1.569-1.26-2.343c-0.897-1.607-1.843-3.184-2.815-4.747
		c-0.368-0.59-0.713-1.193-1.093-1.777c-1.367-2.109-2.795-4.176-4.298-6.188c-0.29-0.389-0.607-0.756-0.902-1.142
		c-1.239-1.614-2.513-3.2-3.839-4.744c-0.553-0.645-1.13-1.269-1.699-1.901c-1.137-1.263-2.298-2.501-3.493-3.711
		c-0.634-0.641-1.273-1.277-1.923-1.902c-1.257-1.208-2.552-2.377-3.868-3.522c-0.601-0.523-1.188-1.061-1.802-1.57
		c-1.939-1.611-3.922-3.17-5.98-4.636c-2.294-1.634-4.655-3.163-7.069-4.598c-0.813-0.485-1.665-0.898-2.492-1.36
		c-1.621-0.906-3.237-1.822-4.903-2.64c-1.031-0.506-2.093-0.938-3.14-1.411c-1.507-0.682-3.008-1.382-4.545-1.994
		c-1.135-0.453-2.297-0.834-3.448-1.248c-1.489-0.537-2.972-1.089-4.483-1.562c-1.199-0.376-2.416-0.685-3.627-1.02
		c-1.496-0.414-2.989-0.838-4.501-1.191c-1.242-0.29-2.495-0.52-3.747-0.768c-1.505-0.299-3.01-0.603-4.527-0.842
		c-1.271-0.201-2.548-0.348-3.826-0.506c-1.515-0.188-3.029-0.374-4.549-0.502c-1.291-0.109-2.582-0.172-3.875-0.238
		c-1.518-0.078-3.037-0.148-4.557-0.167c-0.499-0.006-0.999-0.055-1.499-0.055c-0.905,0-1.808,0.069-2.713,0.09
		c-1.239,0.028-2.479,0.056-3.716,0.124c-1.45,0.079-2.895,0.208-4.342,0.342c-1.224,0.113-2.449,0.218-3.667,0.369
		c-1.451,0.181-2.891,0.417-4.334,0.652c-1.206,0.197-2.413,0.378-3.612,0.613c-1.447,0.283-2.877,0.63-4.311,0.969
		c-1.171,0.277-2.348,0.532-3.509,0.846c-1.46,0.396-2.898,0.862-4.34,1.316c-1.108,0.349-2.225,0.668-3.321,1.052
		c-1.502,0.525-2.971,1.131-4.447,1.722c-1.006,0.403-2.027,0.768-3.021,1.201c-1.626,0.709-3.212,1.507-4.802,2.298
		c-0.806,0.401-1.633,0.757-2.429,1.179c-2.367,1.255-4.691,2.595-6.958,4.036c-15.732-48.361-60.526-85.957-110.857-93.06
		c-3.069-0.434-6.147-0.745-9.23-0.953c-1.017-0.068-2.036-0.061-3.053-0.105c-1.889-0.082-3.779-0.196-5.67-0.196
		c-0.183,0-0.367,0.016-0.55,0.017c-0.951,0.004-1.901,0.066-2.851,0.09c-2.047,0.053-4.093,0.121-6.135,0.267
		c-1.151,0.083-2.297,0.214-3.445,0.326c-1.841,0.181-3.679,0.377-5.512,0.632c-1.211,0.169-2.418,0.368-3.626,0.568
		c-1.768,0.294-3.528,0.617-5.285,0.979c-1.213,0.251-2.424,0.513-3.63,0.796c-1.756,0.411-3.499,0.865-5.238,1.344
		c-1.169,0.322-2.34,0.638-3.501,0.989c-1.802,0.546-3.584,1.149-5.364,1.766c-1.062,0.368-2.132,0.713-3.185,1.107
		c-2.059,0.768-4.089,1.611-6.11,2.473c-0.74,0.316-1.494,0.596-2.228,0.923c-2.732,1.219-5.426,2.523-8.076,3.91
		c-0.66,0.345-1.295,0.734-1.949,1.09c-1.982,1.078-3.952,2.176-5.881,3.346c-0.949,0.576-1.869,1.195-2.804,1.793
		c-1.597,1.021-3.186,2.051-4.74,3.135c-0.994,0.694-1.966,1.419-2.942,2.138c-1.448,1.067-2.88,2.15-4.285,3.272
		c-0.971,0.776-1.929,1.568-2.878,2.369c-1.365,1.152-2.703,2.331-4.021,3.536c-0.908,0.829-1.815,1.661-2.699,2.514
		c-1.323,1.275-2.602,2.59-3.871,3.919c-0.805,0.844-1.622,1.676-2.406,2.542c-1.35,1.492-2.64,3.035-3.919,4.588
		c-0.629,0.762-1.285,1.501-1.896,2.278c-1.853,2.357-3.639,4.769-5.323,7.257l-0.366-0.183
		c-49.993-24.597-113.015-10.912-154.237,25.596c-0.816-1.414-1.704-2.827-2.662-4.205
		c-31.688-46.078-102.416-24.094-120.218,23.237c-2.225,5.966-3.696,12.25-4.165,18.6c-44.209-12.111-98.501,15.549-115.575,61.011
		c-4.566,12.161-6.742,25.32-5.257,38.229c2.43,21.008,15.103,39.424,32.414,51.603c-18.582,9.882-33.628,26.537-40.66,46.403
		c-10.368,29.311-2.773,64.187,18.831,86.532c-21.422,34.88-10.167,85.846,23.946,108.454c11.514,7.631,24.989,11.52,38.695,12.154
		c26.344,1.218,53.561-9.812,69.464-30.99l0.196,0.272c-1.284,3.862,2.559,7.576,9.102,10.93
		c8.557,8.428,19.812,15.496,34.024,20.481c6.109,2.159,12.78,3.92,20.013,5.244c2.757,0.504,5.541,0.853,8.333,1.131
		c0.628,0.062,1.253,0.125,1.882,0.177c2.743,0.223,5.495,0.36,8.251,0.368c0.105,0,0.21,0.014,0.315,0.014
		c0.273,0,0.545-0.035,0.819-0.037c2.612-0.02,5.221-0.144,7.825-0.355c0.52-0.042,1.038-0.07,1.557-0.12
		c2.79-0.267,5.569-0.651,8.327-1.136c0.58-0.102,1.152-0.219,1.73-0.331c2.728-0.526,5.438-1.13,8.112-1.867
		c0.122-0.033,0.246-0.058,0.367-0.092c2.754-0.77,5.46-1.687,8.136-2.68c0.57-0.211,1.138-0.421,1.704-0.643
		c2.614-1.023,5.191-2.135,7.708-3.371c0.381-0.187,0.75-0.395,1.128-0.587c2.306-1.169,4.562-2.431,6.766-3.779
		c0.407-0.248,0.821-0.481,1.223-0.736c2.355-1.489,4.637-3.094,6.851-4.789c0.479-0.367,0.946-0.745,1.418-1.121
		c2.243-1.788,4.435-3.646,6.506-5.649c3.92-3.786,7.456-7.956,10.591-12.415c11.746,17.279,32.227,30.907,63.059,36.544
		c2.757,0.504,5.541,0.853,8.332,1.131c0.63,0.063,1.257,0.126,1.889,0.177c2.742,0.223,5.491,0.359,8.244,0.368
		c0.106,0,0.214,0.015,0.32,0.015c0.277,0,0.554-0.036,0.831-0.038c2.606-0.02,5.211-0.144,7.809-0.354
		c0.521-0.042,1.041-0.07,1.562-0.12c2.789-0.267,5.566-0.651,8.325-1.135c0.582-0.102,1.156-0.221,1.736-0.332
		c2.723-0.525,5.429-1.128,8.097-1.863c0.126-0.034,0.255-0.06,0.38-0.095c2.751-0.768,5.455-1.684,8.128-2.675
		c0.572-0.212,1.143-0.423,1.712-0.645c2.613-1.021,5.188-2.132,7.702-3.365c0.385-0.189,0.755-0.398,1.137-0.591
		c2.302-1.166,4.555-2.424,6.754-3.768c0.409-0.25,0.826-0.484,1.231-0.74c2.356-1.488,4.636-3.091,6.851-4.784
		c0.476-0.365,0.942-0.741,1.412-1.115c2.245-1.787,4.438-3.643,6.509-5.645c7.362-7.108,13.396-15.554,17.89-24.745
		c2.414,2.305,4.957,4.456,7.579,6.502c0.862,0.672,1.774,1.273,2.657,1.917c1.804,1.317,3.624,2.612,5.508,3.81
		c1.088,0.692,2.206,1.326,3.318,1.977c1.769,1.036,3.556,2.042,5.381,2.976c1.194,0.611,2.4,1.19,3.617,1.758
		c1.832,0.855,3.687,1.657,5.564,2.413c1.24,0.499,2.476,0.993,3.733,1.448c1.964,0.711,3.956,1.343,5.957,1.947
		c1.198,0.362,2.385,0.748,3.596,1.072c2.293,0.612,4.614,1.114,6.942,1.587c0.945,0.192,1.877,0.436,2.827,0.605
		c3.283,0.583,6.589,1.038,9.909,1.343c0.619,0.057,1.241,0.054,1.861,0.102c2.708,0.206,5.422,0.347,8.136,0.366
		c0.277,0.002,0.553,0.038,0.83,0.038c2.016,0,4.029-0.099,6.041-0.204c0.532-0.027,1.067-0.018,1.599-0.053
		c2.866-0.188,5.721-0.49,8.561-0.891c0.811-0.115,1.612-0.285,2.42-0.417c2.028-0.331,4.048-0.692,6.053-1.134
		c1.036-0.228,2.061-0.501,3.089-0.759c1.771-0.445,3.53-0.92,5.275-1.453c1.069-0.326,2.13-0.674,3.188-1.034
		c1.706-0.58,3.391-1.211,5.065-1.878c1.014-0.405,2.031-0.803,3.033-1.24c1.78-0.776,3.524-1.627,5.258-2.504
		c0.835-0.423,1.685-0.812,2.508-1.258c2.527-1.37,5.011-2.826,7.421-4.419c2.227,2.802,4.625,5.427,7.146,7.908
		c0.123,0.121,0.237,0.251,0.36,0.371c2.447,2.381,5.036,4.592,7.722,6.672c0.228,0.177,0.446,0.366,0.675,0.54
		c2.637,2.004,5.389,3.845,8.22,5.562c0.315,0.191,0.624,0.394,0.941,0.581c2.799,1.655,5.688,3.155,8.642,4.533
		c0.385,0.18,0.767,0.368,1.155,0.543c2.934,1.324,5.935,2.501,8.988,3.554c0.44,0.152,0.879,0.307,1.321,0.453
		c3.042,1.005,6.134,1.871,9.263,2.608c0.472,0.111,0.945,0.222,1.419,0.327c3.13,0.694,6.29,1.256,9.475,1.683
		c0.486,0.065,0.974,0.124,1.461,0.183c3.195,0.387,6.404,0.646,9.622,0.764c0.475,0.018,0.95,0.024,1.425,0.036
		c0.933,0.023,1.866,0.07,2.8,0.07c1.323,0,2.639-0.137,3.959-0.183c1.668-0.057,3.336-0.1,4.999-0.23
		c1.946-0.152,3.871-0.408,5.804-0.661c1.642-0.214,3.289-0.403,4.919-0.689c1.927-0.339,3.822-0.792,5.726-1.232
		c1.599-0.37,3.207-0.703,4.786-1.143c1.898-0.531,3.747-1.187,5.609-1.822c1.527-0.52,3.073-0.992,4.573-1.582
		c1.869-0.736,3.671-1.61,5.49-2.455c1.418-0.658,2.864-1.255,4.247-1.978c1.864-0.975,3.636-2.103,5.431-3.199
		c1.248-0.761,2.54-1.449,3.75-2.268c1.948-1.318,3.779-2.806,5.623-4.274c0.953-0.759,1.967-1.432,2.891-2.231
		c2.713-2.346,5.303-4.856,7.735-7.55c2.474,1.704,5.03,3.312,7.64,4.841c0.869,0.509,1.775,0.958,2.658,1.447
		c1.77,0.981,3.541,1.962,5.362,2.861c1.077,0.532,2.183,1.005,3.276,1.507c1.674,0.77,3.346,1.54,5.052,2.238
		c1.192,0.488,2.403,0.922,3.61,1.375c1.651,0.62,3.304,1.233,4.977,1.785c1.26,0.416,2.527,0.786,3.797,1.162
		c1.659,0.492,3.322,0.966,4.996,1.39c1.3,0.329,2.6,0.624,3.907,0.911c1.669,0.367,3.343,0.704,5.022,1.002
		c1.322,0.235,2.641,0.448,3.966,0.639c1.683,0.242,3.367,0.442,5.054,0.613c1.323,0.134,2.641,0.26,3.964,0.35
		c1.704,0.115,3.406,0.171,5.106,0.21c0.868,0.02,1.738,0.107,2.603,0.107c0.488,0,0.971-0.046,1.458-0.052
		c1.175-0.016,2.346-0.072,3.517-0.126c1.568-0.071,3.13-0.164,4.686-0.303c1.179-0.106,2.353-0.241,3.524-0.387
		c1.535-0.191,3.059-0.416,4.578-0.677c1.164-0.2,2.325-0.416,3.478-0.657c1.508-0.316,3-0.68,4.488-1.068
		c1.128-0.294,2.255-0.589,3.37-0.925c1.495-0.451,2.966-0.967,4.434-1.495c1.066-0.383,2.136-0.751,3.187-1.176
		c1.509-0.609,2.982-1.303,4.456-1.998c0.963-0.455,1.94-0.876,2.886-1.368c1.601-0.832,3.153-1.768,4.704-2.708
		c0.769-0.466,1.563-0.883,2.319-1.376c2.28-1.487,4.506-3.082,6.654-4.818c2.188-1.769,4.232-3.689,6.147-5.724
		c0.642-0.682,1.187-1.446,1.798-2.154c1.211-1.405,2.434-2.799,3.524-4.301c0.661-0.911,1.221-1.892,1.837-2.835
		c0.913-1.398,1.847-2.778,2.662-4.24c0.583-1.048,1.071-2.148,1.603-3.225c0.712-1.438,1.44-2.863,2.06-4.347
		c0.48-1.149,0.87-2.336,1.296-3.508c0.534-1.474,1.078-2.938,1.525-4.443c0.363-1.22,0.644-2.463,0.948-3.699
		c0.37-1.502,0.743-2.997,1.028-4.518c0.237-1.266,0.401-2.542,0.578-3.817c0.212-1.515,0.417-3.024,0.543-4.545
		c0.107-1.29,0.151-2.578,0.198-3.868c0.034-0.956,0.146-1.913,0.147-2.867c0.001-0.868-0.042-1.731-0.069-2.595
		c-0.01-0.334-0.012-0.669-0.027-1.002c-0.109-2.511-0.347-5.001-0.692-7.467c-0.05-0.364-0.098-0.728-0.154-1.09
		c-0.376-2.434-0.876-4.831-1.486-7.189c-0.095-0.367-0.19-0.733-0.291-1.098c-0.646-2.338-1.407-4.625-2.286-6.855
		c-0.136-0.345-0.278-0.686-0.42-1.029c-0.92-2.219-1.952-4.376-3.11-6.454c-0.17-0.305-0.35-0.602-0.525-0.904
		c-1.204-2.077-2.52-4.078-3.971-5.978c-0.186-0.243-0.385-0.476-0.575-0.716c-1.51-1.91-3.13-3.731-4.896-5.423
		c-0.175-0.168-0.365-0.323-0.542-0.488c-1.842-1.716-3.8-3.324-5.916-4.772c-0.122-0.084-0.255-0.156-0.379-0.239
		c-2.216-1.489-4.561-2.843-7.073-4.006c2.075-1.398,4.057-2.913,5.993-4.48c0.541-0.437,1.069-0.888,1.599-1.337
		c1.515-1.287,2.983-2.62,4.407-4.003c0.396-0.386,0.808-0.756,1.197-1.148c1.732-1.747,3.393-3.561,4.979-5.44
		c0.358-0.424,0.693-0.867,1.043-1.297c1.253-1.539,2.458-3.116,3.613-4.731c0.405-0.565,0.81-1.128,1.202-1.702
		c1.385-2.025,2.718-4.086,3.948-6.211c0.015-0.024,0.031-0.048,0.045-0.073c1.244-2.153,2.379-4.369,3.462-6.612
		c0.302-0.626,0.59-1.26,0.879-1.892c0.826-1.803,1.598-3.628,2.319-5.478c0.207-0.53,0.43-1.055,0.628-1.589
		c0.859-2.317,1.636-4.663,2.328-7.035c0.154-0.529,0.281-1.065,0.427-1.595c0.529-1.929,1.002-3.871,1.418-5.826
		c0.146-0.684,0.292-1.368,0.425-2.055c0.458-2.39,0.859-4.791,1.148-7.205c0.007-0.061,0.019-0.122,0.026-0.184
		c0.29-2.466,0.458-4.943,0.565-7.421c0.03-0.696,0.042-1.392,0.057-2.088c0.018-0.815,0.07-1.631,0.068-2.446
		C1440.774,438.535,1440.688,437.873,1440.673,437.207z"/>
	<path style="fill:#83433B;" d="M862.951,1438.017c-1.125,7.746-2.207,15.922,0.694,23.196c2.809,7.035,8.945,12.166,15.242,16.37
		c51.383,34.334,129.182,19.469,164.282-31.395c1.786-2.592,3.515-5.364,3.922-8.482c0.548-4.18-1.335-8.244-3.035-12.102
		c-6.596-14.956-10.989-30.686-13.956-46.754c-0.076-0.414-0.17-0.823-0.243-1.237c-3.219-17.913-4.657-36.241-5.123-54.44
		c-0.236-9.239-0.275-18.606-0.727-27.902c-18.389,2.638-37.143,4.036-56.196,4.036c-28.702,0-56.723-3.121-83.817-9
		c-0.056,1.459-0.11,2.918-0.211,4.37c-1.978,28.256-6.519,56.732-11.316,85.095c-0.138,0.814-0.272,1.629-0.409,2.443
		C868.887,1400.9,865.636,1419.534,862.951,1438.017z"/>
	<path style="fill:#EA5466;" d="M551.377,1496.009c-4.322-8.911-10.753-16.604-17.14-24.185
		c-12.441-14.835-25.101-29.491-37.559-44.273c-4.945-5.905-8.979-13.427-7.647-21.013c4.799-27.454,42.151-10.509,58.034-21.656
		c12.646-8.906,10.463-28.609,3.133-42.232c-6.694-12.477-16.517-23.269-28.329-31.089c-7.954-5.281-17.243-9.296-26.76-8.643
		c-9.533,0.662-19.106,7.054-21.03,16.419c-2.234,10.782,5.741,21.793,3.337,32.526c-2.356,10.378-14.115,16.453-24.719,15.712
		c-10.633-0.726-20.144-6.606-28.696-12.95c-8.992-6.665-17.472-14.007-25.34-21.958c-7.569-7.64-14.814-16.015-24.456-20.814
		c-14.207-7.06-31.605-5.009-46.027,1.637l-0.862,0.405c-19.908,9.364-43.618,28.253-56.051,46.275
		c-5.922,8.555-13.101,29.218-2.899,37.51c5.825,4.76,16.604,3.907,23.645,4.862c7.469,1.033,14.641,4.765,19.303,10.66
		c4.914,6.208,6.904,14.714,4.47,22.319c-1.549,4.823-4.421,9.111-7.537,13.116c-6.743,8.696-14.799,16.39-23.769,22.772
		c-4.28,3.035-9.164,5.788-14.2,7.021c-5.288,1.281-10.757,0.877-15.812-2.748c-9.335-6.675-12.704-19.746-13.417-30.592
		c-0.512-7.352-0.529-15.708-4.612-22.017c-0.823-1.272-1.812-2.471-3.008-3.557c-5.727-5.17-14.529-5.744-21.863-3.367
		c-7.352,2.368-13.579,7.259-19.583,12.107c-15.332,12.395-30.538,25.584-40.811,42.417c-10.292,16.823-15.064,38.061-8.285,56.58
		c8.428,22.923,31.863,36.463,46.119,56.292c4.931,6.889,8.853,14.894,8.884,23.367c0.046,8.472-4.577,17.335-12.492,20.317
		c-10.792,4.049-23.362-3.498-34.117,0.575c-12.417,4.711-14.663,21.72-11.096,34.524c3.754,13.486,11.773,25.72,22.473,34.743
		c4.292,3.635,9.016,6.758,14.056,9.218c6.967,3.425,14.778,5.681,22.49,4.673c7.703-0.989,15.203-5.783,17.91-13.052
		c6.059-16.414-11.413-36.57,9.206-47.674c15.503-8.336,32.285,4.429,43.055,14.65c2.127,2.051,4.205,4.156,6.214,6.3
		c9.815,10.387,18.534,21.802,29.026,31.488c24.789,22.865,55.352,13.525,80.173-4.185c9.934-7.06,62.736-40.409,47.683-56.249
		c-16.49-17.335-45.479-13.335-50.487-42.801c-1.661-9.856,1.316-20.048,6.305-28.706c9.688-16.872,32.896-44.541,55.383-33.379
		c16.3,8.054,20.777,27.206,26.439,42.86c4.436,12.239,10.772,25.335,25.14,14.914c17.033-12.326,32.244-27.157,44.982-43.869
		C552.975,1534.577,561.17,1516.263,551.377,1496.009z"/>
	<path style="fill:#5EAFE2;" d="M2015.268,1045.559c-8.999,1.125-15.461,10.265-24.468,11.245
		c-8.711,0.926-16.573-6.626-18.816-15.089c-2.258-8.482-0.202-17.457,2.468-25.807c2.806-8.78,6.278-17.34,10.383-25.588
		c3.941-7.927,8.543-15.8,9.725-24.59c1.725-12.95-4.497-25.968-13.508-35.445l-0.546-0.565
		c-12.587-13.028-33.613-26.485-50.964-31.391c-8.241-2.339-26.253-2.446-30.008,7.712c-2.161,5.803,1.367,13.978,2.495,19.722
		c1.179,6.095,0.176,12.677-3.179,17.876c-3.532,5.481-9.634,9.291-16.209,9.418c-4.17,0.073-8.275-1.028-12.224-2.392
		c-8.573-2.943-16.709-7.177-24.066-12.473c-3.506-2.528-6.948-5.603-9.247-9.203c-2.405-3.781-3.542-8.151-2.058-13.052
		c2.719-9.052,12.012-15.152,20.275-18.587c5.598-2.353,12.105-4.589,15.937-9.447c0.774-0.979,1.444-2.07,1.973-3.288
		c2.509-5.842,0.616-12.853-3.187-17.935c-3.8-5.106-9.264-8.657-14.641-12.048c-13.734-8.658-28.056-17.004-43.907-20.541
		c-15.846-3.552-33.669-1.627-46.302,8.58c-15.625,12.663-19.951,34.524-31.62,50.909c-4.058,5.671-9.255,10.855-15.852,13.135
		c-6.592,2.285-14.728,1.038-19.154-4.341c-6.024-7.332-3.481-19.138-9.513-26.441c-6.974-8.424-20.828-5.652-29.858,0.526
		c-9.515,6.514-16.918,16.014-21.109,26.753c-1.693,4.311-2.87,8.823-3.449,13.403c-0.816,6.339-0.502,13.028,2.334,18.772
		c2.818,5.739,8.546,10.314,14.933,10.489c14.404,0.361,25.471-18.616,39.605-5.495c10.619,9.871,5.128,26.344,0.022,37.457
		c-1.033,2.202-2.122,4.38-3.257,6.514c-5.488,10.412-12.07,20.239-16.831,30.991c-11.233,25.398,4.17,46.738,24.568,61.378
		c8.144,5.866,48.168,38.158,56.516,22.217c9.125-17.457-1.693-38.991,19.942-50.723c7.24-3.917,15.975-4.302,24.051-2.714
		c15.724,3.065,43.459,13.802,40.735,34.295c-1.946,14.845-15.683,23.425-26.38,31.995c-8.361,6.714-16.884,15.133-4.945,23.562
		c14.134,9.998,29.737,17.915,46.146,23.401c16.39,5.5,32.845,7.021,46.024-5.993c5.8-5.739,10.088-12.794,14.297-19.786
		c8.258-13.637,16.317-27.401,24.529-41.043c3.286-5.422,8.076-10.562,14.346-11.542c22.673-3.557,19.391,30.061,32.302,39.478
		c10.302,7.489,25.079,0.551,33.749-8.784c7.947-8.531,13.747-19.055,16.704-30.343c2-7.601,2.665-15.908-0.375-23.153
		C2030.603,1050.334,2023.075,1044.575,2015.268,1045.559z"/>
	<path style="fill:#83433B;" d="M1572.41,740.871c-10.497-24.776-31.085-46.207-57.101-53.087
		c-35.491-9.391-72.449,9.168-101.033,32.227c-11.853,9.57-22.983,20.031-33.297,31.25c-4.223-21.788-9.882-43.018-16.892-63.531
		c-3.744-10.964-7.91-21.707-12.399-32.255c-0.817,0.029-1.632,0.046-2.451,0.057c-0.487,0.006-0.969,0.052-1.458,0.052
		c-0.865,0-1.736-0.087-2.603-0.107c-1.701-0.039-3.401-0.095-5.106-0.21c-1.323-0.089-2.641-0.216-3.964-0.35
		c-1.687-0.172-3.37-0.37-5.054-0.613c-1.325-0.191-2.645-0.404-3.966-0.639c-1.68-0.298-3.352-0.635-5.022-1.002
		c-1.307-0.287-2.608-0.583-3.907-0.911c-1.676-0.425-3.336-0.898-4.996-1.39c-1.27-0.376-2.537-0.747-3.797-1.162
		c-1.675-0.553-3.326-1.164-4.977-1.785c-1.207-0.453-2.417-0.887-3.61-1.375c-1.708-0.699-3.378-1.468-5.052-2.238
		c-1.093-0.502-2.199-0.975-3.276-1.507c-1.821-0.899-3.591-1.879-5.362-2.861c-0.883-0.489-1.789-0.938-2.658-1.447
		c-2.582-1.512-5.106-3.104-7.555-4.787c9.301,26.713,18.387,51.284,21.195,68.663c5.401,33.556,5.891,67.759,4.005,101.689
		c-3.344,60.309-14.698,120.06-33.144,177.56c10.887,8.286,17.594,19.327,17.594,31.494c0,20.912-19.654,38.594-46.686,44.434
		c-37.675,84.164-91.03,161.279-157.124,225.206c123.401-37.498,223.837-133.934,273.505-259.293
		c22.167,11.095,51.134,12.615,86.336-0.272c35.491-12.994,65.127-39.045,87.571-69.462c28.584-38.697,46.547-85.132,51.456-132.989
		C1584.321,793.459,1582.903,765.651,1572.41,740.871z"/>
	<path style="fill:#771B42;" d="M1148.273,1053.969c-15.318-10.953-34.421-8.994-53.707-2.485
		c-23.584,7.937-47.437,22.675-64.874,28.911c-47.437,16.931-99.567,20.916-148.906,10.568c-24.49-5.13-48.144-13.593-72.597-18.87
		c-7.069-1.525-14.699-2.612-22.095-2.538c-11.674,0.073-22.784,3.011-30.363,11.513c-8.283,9.296-9.769,23.235-6.434,35.235
		c3.335,11.981,10.821,22.387,18.923,31.849c37.556,43.975,91.52,73.32,148.616,82.037c13.323,2.031,26.828,2.938,40.314,2.65
		c69.949-1.471,138.538-35.147,182.621-89.437c0.87-1.052,1.722-2.119,2.555-3.191c9.971-12.721,18.853-26.952,21.425-42.904
		C1166.344,1081.354,1161.415,1063.357,1148.273,1053.969z"/>
	<path style="fill:#FFFEFE;" d="M876.438,840.434c-1.96-23.461-19.928-42.78-43.956-48.876
		c-18.136-9.887-40.206-15.708-64.036-15.708c-61.705,0-111.725,38.903-111.725,86.898c0,47.99,50.02,86.899,111.725,86.899
		c61.705,0,111.727-38.908,111.727-86.899C880.173,855.032,878.865,847.556,876.438,840.434z"/>
	<path style="fill:#5B2724;" d="M419.835,715.07c-5.469,1.213-6.015,8.901-1.518,11.595c17.05,10.212,37.513,12.02,54.741,23.537
		c20.272,13.555,37.151,32.561,48.554,54.114c-30.151-4.19-65.091,13.031-80.093,38.217c-8.765,14.714-11.294,32.56-6.227,49.003
		c3.849,12.497,13.301,29.793,28.173,28.234c4.607-0.487,8.015-4.131,6.828-8.964c-2.48-10.124-11.671-14.724-15.111-24.755
		c-4.48-13.062-1.206-27.118,6.577-38.211c16.998-24.229,42.337-22.597,67.354-27.112c7.934,20.065,12.052,41.442,12.984,63.093
		c1.092,25.335-5.179,49.651-5.783,74.694c-0.107,4.472,6.568,6.509,8.655,2.343c24.368-48.57,14.821-120.521-10.277-166.826
		C515.816,759.206,464.576,705.131,419.835,715.07z"/>
	<path style="fill:#FFFEFE;" d="M1239.61,810.445c-6.071-7.002-13.943-12.621-22.999-16.266
		c-17.92-9.517-39.579-15.089-62.915-15.089c-61.705,0-111.727,38.904-111.727,86.899c0,47.99,50.022,86.893,111.727,86.893
		c61.703,0,111.725-38.903,111.725-86.893C1265.42,844.863,1255.722,825.505,1239.61,810.445z"/>
	<path style="fill:#5B2724;" d="M1374.421,954.422c8.529-42.348,23.615-82.124,47.498-118.284c0.623-0.942,1.259-1.847,1.885-2.777
		c17.67-5.417,34.114-9.018,51.503,4.916c19.656,15.746,20.02,46.143,4.078,64.594c-2.509,2.909-4.4,7.167-2.926,11.07
		c1.74,4.599,3.362,6.1,7.949,7.947c3.432,1.383,8.709-0.161,11.07-2.924c22.843-26.743,24.801-69.525-2.166-94.596
		c-11.409-10.608-31.724-17.32-50.418-16.472c22.628-26.769,49.247-46.635,84.856-58.335c6.548-2.153,7.123-11.976,0-13.875
		c-45.942-12.254-89.571,38.855-114.053,70.904c-31.632,41.408-53.381,90.085-62.982,141.301
		C1347.827,963.308,1371.286,969.998,1374.421,954.422z"/>
	<path style="fill:#773E37;" d="M995.998,876.161c-20.443-20.672-45.342-25.51-68.497-5.315
		c-10.687,9.32-18.197,21.764-24.192,34.616c-11.235,24.082-17.734,50.368-19.013,76.916c-2.938,60.998,58.244,94.44,111.956,67.03
		C1063.43,1015.123,1038.997,919.649,995.998,876.161z"/>
	<path style="fill:#2E2448;" d="M976.803,175.35c10.366,0.001,20.695,1.953,30.284,6.092c36.508,15.75,57.261,60.976,45.409,98.915
		c19.495-8.554,41.069-13.318,62.372-13.318c22.884,0,45.453,5.498,64.783,17.702c37.32,23.585,57.351,75.027,38.301,114.87
		c0.314-0.003,0.625-0.004,0.939-0.004c28.895,0,58.144,12.411,76.005,35.094c18.069,22.948,22.894,56.405,9.516,82.367
		c-10.999,21.297-34.628,35.637-58.263,35.637c-5.152,0-10.307-0.682-15.328-2.121c0.598,21.913-23.219,36.704-44.936,39.696
		c-4.535,0.622-9.103,0.927-13.674,0.927c-25.652,0-51.304-9.615-70.379-26.813c-14.374,15.338-35.363,24.084-56.334,24.084
		c-4.629,0-9.259-0.427-13.815-1.302c-25.195-4.82-47.362-23.215-56.753-47.09c-9.463,22.747-30.925,40.08-55.139,44.57
		c-4.28,0.791-8.618,1.176-12.961,1.176c-20.239,0-40.502-8.374-54.472-23.089c-8.989,14.886-26.414,22.722-43.683,22.722
		c-13.786,0-27.472-4.994-36.686-15.383c-11.924,39.585-41.181,73.123-77.778,92.097c6.109,2.159,12.78,3.92,20.013,5.244
		c2.757,0.504,5.541,0.853,8.333,1.131c0.628,0.062,1.253,0.125,1.882,0.177c2.743,0.223,5.495,0.36,8.251,0.368
		c0.105,0,0.21,0.014,0.315,0.014c0.273,0,0.545-0.035,0.819-0.037c2.612-0.02,5.221-0.144,7.825-0.355
		c0.52-0.042,1.038-0.07,1.557-0.12c2.79-0.267,5.569-0.651,8.327-1.136c0.58-0.102,1.152-0.219,1.73-0.331
		c2.728-0.526,5.438-1.13,8.112-1.867c0.122-0.033,0.246-0.058,0.367-0.092c2.754-0.77,5.46-1.687,8.136-2.68
		c0.57-0.211,1.138-0.421,1.704-0.643c2.614-1.023,5.191-2.135,7.708-3.371c0.381-0.187,0.75-0.395,1.128-0.587
		c2.306-1.169,4.562-2.431,6.766-3.779c0.407-0.248,0.821-0.481,1.223-0.736c2.355-1.489,4.637-3.094,6.851-4.789
		c0.479-0.367,0.946-0.745,1.418-1.121c2.243-1.788,4.435-3.646,6.506-5.649c3.92-3.786,7.456-7.956,10.591-12.415
		c11.746,17.279,32.227,30.907,63.059,36.544c2.757,0.504,5.541,0.853,8.332,1.131c0.63,0.063,1.257,0.126,1.889,0.177
		c2.742,0.223,5.491,0.359,8.244,0.368c0.106,0,0.214,0.015,0.32,0.015c0.277,0,0.554-0.036,0.831-0.038
		c2.606-0.02,5.211-0.144,7.809-0.354c0.521-0.042,1.041-0.07,1.562-0.12c2.789-0.267,5.566-0.651,8.325-1.135
		c0.582-0.102,1.156-0.221,1.736-0.332c2.723-0.525,5.429-1.128,8.097-1.863c0.126-0.034,0.255-0.06,0.38-0.095
		c2.751-0.768,5.455-1.684,8.128-2.675c0.572-0.212,1.143-0.423,1.712-0.645c2.613-1.021,5.188-2.132,7.702-3.365
		c0.385-0.189,0.755-0.398,1.137-0.591c2.302-1.166,4.555-2.424,6.754-3.768c0.409-0.25,0.826-0.484,1.231-0.74
		c2.356-1.488,4.636-3.091,6.851-4.784c0.476-0.365,0.942-0.741,1.412-1.115c2.245-1.787,4.438-3.643,6.509-5.645
		c7.362-7.108,13.396-15.554,17.89-24.745c2.414,2.305,4.957,4.456,7.579,6.502c0.862,0.672,1.774,1.273,2.657,1.917
		c1.804,1.317,3.624,2.612,5.508,3.81c1.088,0.692,2.206,1.326,3.318,1.977c1.769,1.036,3.556,2.042,5.381,2.976
		c1.194,0.611,2.4,1.19,3.617,1.758c1.832,0.855,3.687,1.657,5.564,2.413c1.24,0.499,2.476,0.993,3.733,1.448
		c1.964,0.711,3.956,1.343,5.957,1.947c1.198,0.362,2.385,0.748,3.596,1.072c2.293,0.612,4.614,1.114,6.942,1.587
		c0.945,0.192,1.877,0.436,2.827,0.605c3.283,0.583,6.589,1.038,9.909,1.343c0.619,0.057,1.241,0.054,1.861,0.102
		c2.708,0.206,5.422,0.347,8.136,0.366c0.277,0.002,0.553,0.038,0.83,0.038c2.016,0,4.029-0.099,6.041-0.204
		c0.532-0.027,1.067-0.018,1.599-0.053c2.866-0.188,5.721-0.49,8.561-0.891c0.811-0.115,1.612-0.285,2.42-0.417
		c2.028-0.331,4.048-0.692,6.053-1.134c1.036-0.228,2.061-0.501,3.089-0.759c1.771-0.445,3.53-0.92,5.275-1.453
		c1.069-0.326,2.13-0.674,3.188-1.034c1.706-0.58,3.391-1.211,5.065-1.878c1.014-0.405,2.031-0.803,3.033-1.24
		c1.78-0.776,3.524-1.627,5.258-2.504c0.835-0.423,1.685-0.812,2.508-1.258c2.527-1.37,5.011-2.826,7.421-4.419
		c2.227,2.802,4.625,5.427,7.146,7.908c0.123,0.121,0.237,0.251,0.36,0.371c2.447,2.381,5.036,4.592,7.722,6.672
		c0.228,0.177,0.446,0.366,0.675,0.54c2.637,2.004,5.389,3.845,8.22,5.562c0.315,0.191,0.624,0.394,0.941,0.581
		c2.799,1.655,5.688,3.155,8.642,4.533c0.385,0.18,0.767,0.368,1.155,0.543c2.934,1.324,5.935,2.501,8.988,3.554
		c0.44,0.152,0.879,0.307,1.321,0.453c3.042,1.005,6.134,1.871,9.263,2.608c0.472,0.111,0.945,0.222,1.419,0.327
		c3.13,0.694,6.29,1.256,9.475,1.683c0.486,0.065,0.974,0.124,1.461,0.183c3.195,0.387,6.404,0.646,9.622,0.764
		c0.475,0.018,0.95,0.024,1.425,0.036c0.933,0.023,1.866,0.07,2.8,0.07c1.323,0,2.639-0.137,3.959-0.183
		c1.668-0.057,3.336-0.1,4.999-0.23c1.946-0.152,3.871-0.408,5.804-0.661c1.642-0.214,3.289-0.403,4.919-0.689
		c1.927-0.339,3.822-0.792,5.726-1.232c1.599-0.37,3.207-0.703,4.786-1.143c1.898-0.531,3.747-1.187,5.609-1.822
		c1.527-0.52,3.073-0.992,4.573-1.582c1.869-0.736,3.671-1.61,5.49-2.455c1.418-0.658,2.864-1.255,4.247-1.978
		c1.864-0.975,3.636-2.103,5.431-3.199c1.248-0.761,2.54-1.449,3.75-2.268c1.948-1.318,3.779-2.806,5.623-4.274
		c0.953-0.759,1.967-1.432,2.891-2.231c2.713-2.346,5.303-4.856,7.735-7.55c2.474,1.704,5.03,3.312,7.64,4.841
		c0.869,0.509,1.775,0.958,2.658,1.447c1.77,0.981,3.541,1.962,5.362,2.861c1.077,0.532,2.183,1.005,3.276,1.507
		c1.674,0.77,3.346,1.54,5.052,2.238c1.192,0.488,2.403,0.922,3.61,1.375c1.651,0.62,3.304,1.233,4.977,1.785
		c1.26,0.416,2.527,0.786,3.797,1.162c1.659,0.492,3.322,0.966,4.996,1.39c1.3,0.329,2.6,0.624,3.907,0.911
		c1.669,0.367,3.343,0.704,5.022,1.002c1.322,0.235,2.641,0.448,3.966,0.639c1.683,0.242,3.367,0.442,5.054,0.613
		c1.323,0.134,2.641,0.26,3.964,0.35c1.704,0.115,3.406,0.171,5.106,0.21c0.868,0.02,1.738,0.107,2.603,0.107
		c0.488,0,0.971-0.046,1.458-0.052c1.175-0.016,2.346-0.072,3.517-0.126c1.568-0.071,3.13-0.164,4.686-0.303
		c1.179-0.106,2.353-0.241,3.524-0.387c1.535-0.191,3.059-0.416,4.578-0.677c1.164-0.2,2.325-0.416,3.478-0.657
		c1.508-0.316,3-0.68,4.488-1.068c1.128-0.294,2.255-0.589,3.37-0.925c1.495-0.451,2.966-0.967,4.434-1.495
		c1.066-0.383,2.136-0.751,3.187-1.176c1.509-0.609,2.982-1.303,4.456-1.998c0.963-0.455,1.94-0.876,2.886-1.368
		c1.601-0.832,3.153-1.768,4.704-2.708c0.769-0.466,1.563-0.883,2.319-1.376c2.28-1.487,4.506-3.082,6.654-4.818
		c2.188-1.769,4.232-3.689,6.147-5.724c0.642-0.682,1.187-1.446,1.798-2.154c1.211-1.405,2.434-2.799,3.524-4.301
		c0.661-0.911,1.221-1.892,1.837-2.835c0.913-1.398,1.847-2.778,2.662-4.24c0.583-1.048,1.071-2.148,1.603-3.225
		c0.712-1.438,1.44-2.863,2.06-4.347c0.48-1.149,0.87-2.336,1.296-3.508c0.534-1.474,1.078-2.938,1.525-4.443
		c0.363-1.22,0.644-2.463,0.948-3.699c0.37-1.502,0.743-2.997,1.028-4.518c0.237-1.266,0.401-2.542,0.578-3.817
		c0.212-1.515,0.417-3.024,0.543-4.545c0.107-1.29,0.151-2.578,0.198-3.868c0.034-0.956,0.146-1.913,0.147-2.867
		c0.001-0.868-0.042-1.731-0.069-2.595c-0.01-0.334-0.012-0.669-0.027-1.002c-0.109-2.511-0.347-5.001-0.692-7.467
		c-0.05-0.364-0.098-0.728-0.154-1.09c-0.376-2.434-0.876-4.831-1.486-7.189c-0.095-0.367-0.19-0.733-0.291-1.098
		c-0.646-2.338-1.407-4.625-2.286-6.855c-0.136-0.345-0.278-0.686-0.42-1.029c-0.92-2.219-1.952-4.376-3.11-6.454
		c-0.17-0.305-0.35-0.602-0.525-0.904c-1.204-2.077-2.52-4.078-3.971-5.978c-0.186-0.243-0.385-0.476-0.575-0.716
		c-1.51-1.91-3.13-3.731-4.896-5.423c-0.175-0.168-0.365-0.323-0.542-0.488c-1.842-1.716-3.8-3.324-5.916-4.772
		c-0.122-0.084-0.255-0.156-0.379-0.239c-2.216-1.489-4.561-2.843-7.073-4.006c2.075-1.398,4.057-2.913,5.993-4.48
		c0.541-0.437,1.069-0.888,1.599-1.337c1.515-1.287,2.983-2.62,4.407-4.003c0.396-0.386,0.808-0.756,1.197-1.148
		c1.732-1.747,3.393-3.561,4.979-5.44c0.358-0.424,0.693-0.867,1.043-1.297c1.253-1.539,2.458-3.116,3.613-4.731
		c0.405-0.565,0.81-1.128,1.202-1.702c1.385-2.025,2.718-4.086,3.948-6.211c0.015-0.024,0.031-0.048,0.045-0.073
		c1.244-2.153,2.379-4.369,3.462-6.612c0.302-0.626,0.59-1.26,0.879-1.892c0.826-1.803,1.598-3.628,2.319-5.478
		c0.207-0.53,0.43-1.055,0.628-1.589c0.859-2.317,1.636-4.663,2.328-7.035c0.154-0.529,0.281-1.065,0.427-1.595
		c0.529-1.929,1.002-3.871,1.418-5.826c0.146-0.684,0.292-1.368,0.425-2.055c0.458-2.39,0.859-4.791,1.148-7.205
		c0.007-0.061,0.019-0.122,0.026-0.184c0.29-2.466,0.458-4.943,0.565-7.421c0.03-0.696,0.042-1.392,0.057-2.088
		c0.018-0.815,0.07-1.631,0.068-2.446c-0.002-0.667-0.087-1.329-0.103-1.996c-0.041-1.811-0.135-3.619-0.277-5.424
		c-0.095-1.205-0.198-2.404-0.339-3.604c-0.215-1.833-0.51-3.655-0.833-5.471c-0.203-1.138-0.384-2.276-0.63-3.406
		c-0.426-1.965-0.963-3.904-1.523-5.838c-0.273-0.944-0.494-1.9-0.799-2.836c-0.927-2.847-1.976-5.661-3.201-8.411
		c-1.059-2.374-2.246-4.678-3.508-6.935c-0.404-0.722-0.853-1.415-1.276-2.124c-0.907-1.52-1.839-3.02-2.833-4.481
		c-0.538-0.789-1.099-1.56-1.661-2.331c-0.98-1.346-1.993-2.665-3.044-3.955c-0.604-0.741-1.21-1.481-1.836-2.203
		c-1.145-1.321-2.336-2.597-3.553-3.853c-0.586-0.605-1.154-1.226-1.755-1.816c-1.667-1.635-3.393-3.211-5.176-4.725
		c-0.183-0.156-0.354-0.328-0.538-0.482c-1.993-1.668-4.06-3.246-6.178-4.757c-0.602-0.429-1.229-0.82-1.839-1.236
		c-1.54-1.049-3.097-2.07-4.693-3.035c-0.783-0.474-1.581-0.921-2.377-1.373c-1.49-0.847-2.995-1.66-4.525-2.432
		c-0.84-0.424-1.682-0.842-2.533-1.243c-1.588-0.748-3.196-1.443-4.82-2.109c-0.794-0.326-1.582-0.67-2.385-0.977
		c-2.017-0.77-4.058-1.465-6.118-2.107c-0.417-0.13-0.824-0.288-1.241-0.412c-2.49-0.741-5.006-1.378-7.542-1.923
		c-0.671-0.145-1.352-0.243-2.026-0.374c-1.865-0.361-3.734-0.688-5.616-0.94c-0.911-0.122-1.824-0.208-2.738-0.304
		c-1.675-0.176-3.35-0.315-5.031-0.403c-0.966-0.05-1.932-0.088-2.898-0.108c-0.653-0.014-1.305-0.073-1.958-0.073
		c-1.461,0-2.922,0.06-4.381,0.13c-0.255,0.012-0.509,0.008-0.762,0.023c-2.433,0.137-4.858,0.4-7.277,0.737
		c-0.582,0.081-1.164,0.172-1.745,0.265c-2.447,0.391-4.886,0.849-7.3,1.453c0.571-2.409,1.024-4.839,1.418-7.277
		c0.117-0.724,0.211-1.451,0.312-2.177c0.253-1.808,0.46-3.619,0.618-5.436c0.063-0.727,0.135-1.453,0.184-2.181
		c0.164-2.456,0.271-4.915,0.267-7.376c-0.004-2.516-0.117-5.03-0.292-7.541c-0.056-0.795-0.146-1.586-0.219-2.38
		c-0.158-1.736-0.346-3.467-0.585-5.195c-0.123-0.895-0.26-1.788-0.406-2.681c-0.272-1.678-0.586-3.349-0.932-5.014
		c-0.173-0.837-0.338-1.676-0.53-2.509c-0.459-1.989-0.978-3.963-1.542-5.925c-0.133-0.465-0.241-0.936-0.38-1.399
		c-0.725-2.412-1.533-4.798-2.411-7.16c-0.24-0.648-0.515-1.281-0.767-1.924c-0.673-1.718-1.373-3.422-2.126-5.106
		c-0.363-0.811-0.745-1.613-1.127-2.416c-0.725-1.527-1.481-3.036-2.271-4.529c-0.414-0.784-0.827-1.569-1.26-2.343
		c-0.897-1.607-1.843-3.184-2.815-4.747c-0.368-0.59-0.713-1.193-1.093-1.777c-1.367-2.109-2.795-4.176-4.298-6.188
		c-0.29-0.389-0.607-0.756-0.902-1.142c-1.239-1.614-2.513-3.2-3.839-4.744c-0.553-0.645-1.13-1.269-1.699-1.901
		c-1.137-1.263-2.298-2.501-3.493-3.711c-0.634-0.641-1.273-1.277-1.923-1.902c-1.257-1.208-2.552-2.377-3.868-3.522
		c-0.601-0.523-1.188-1.061-1.802-1.57c-1.939-1.611-3.922-3.17-5.98-4.636c-2.294-1.634-4.655-3.163-7.069-4.598
		c-0.813-0.485-1.665-0.898-2.492-1.36c-1.621-0.906-3.237-1.822-4.903-2.64c-1.031-0.506-2.093-0.938-3.14-1.411
		c-1.507-0.682-3.008-1.382-4.545-1.994c-1.135-0.453-2.297-0.834-3.448-1.248c-1.489-0.537-2.972-1.089-4.483-1.562
		c-1.199-0.376-2.416-0.685-3.627-1.02c-1.496-0.414-2.989-0.838-4.501-1.191c-1.242-0.29-2.495-0.52-3.747-0.768
		c-1.505-0.299-3.01-0.603-4.527-0.842c-1.271-0.201-2.548-0.348-3.826-0.506c-1.515-0.188-3.029-0.374-4.549-0.502
		c-1.291-0.109-2.582-0.172-3.875-0.238c-1.518-0.078-3.037-0.148-4.557-0.167c-0.499-0.006-0.999-0.055-1.499-0.055
		c-0.905,0-1.808,0.069-2.713,0.09c-1.239,0.028-2.479,0.056-3.716,0.124c-1.45,0.079-2.895,0.208-4.342,0.342
		c-1.224,0.113-2.449,0.218-3.667,0.369c-1.451,0.181-2.891,0.417-4.334,0.652c-1.206,0.197-2.413,0.378-3.612,0.613
		c-1.447,0.283-2.877,0.63-4.311,0.969c-1.171,0.277-2.348,0.532-3.509,0.846c-1.46,0.396-2.898,0.862-4.34,1.316
		c-1.108,0.349-2.225,0.668-3.321,1.052c-1.502,0.525-2.971,1.131-4.447,1.722c-1.006,0.403-2.027,0.768-3.021,1.201
		c-1.626,0.709-3.212,1.507-4.802,2.298c-0.806,0.401-1.633,0.757-2.429,1.179c-2.367,1.255-4.691,2.595-6.958,4.036
		c-15.732-48.361-60.526-85.957-110.857-93.06c-3.069-0.434-6.147-0.745-9.23-0.953c-1.017-0.068-2.036-0.061-3.053-0.105
		c-1.889-0.082-3.779-0.196-5.67-0.196c-0.183,0-0.367,0.016-0.55,0.017c-0.951,0.004-1.901,0.066-2.851,0.09
		c-2.047,0.053-4.093,0.121-6.135,0.267c-1.151,0.083-2.297,0.214-3.445,0.326c-1.841,0.181-3.679,0.377-5.512,0.632
		c-1.211,0.169-2.418,0.368-3.626,0.568c-1.768,0.294-3.528,0.617-5.285,0.979c-1.213,0.251-2.424,0.513-3.63,0.796
		c-1.756,0.411-3.499,0.865-5.238,1.344c-1.169,0.322-2.34,0.638-3.501,0.989c-1.802,0.546-3.584,1.149-5.364,1.766
		c-1.062,0.368-2.132,0.713-3.185,1.107c-2.059,0.768-4.089,1.611-6.11,2.473c-0.74,0.316-1.494,0.596-2.228,0.923
		c-2.732,1.219-5.426,2.523-8.076,3.91c-0.66,0.345-1.295,0.734-1.949,1.09c-1.982,1.078-3.952,2.176-5.881,3.346
		c-0.949,0.576-1.869,1.195-2.804,1.793c-1.597,1.021-3.186,2.051-4.74,3.135c-0.994,0.694-1.966,1.419-2.942,2.138
		c-1.448,1.067-2.88,2.15-4.285,3.272c-0.971,0.776-1.929,1.568-2.878,2.369c-1.365,1.152-2.703,2.331-4.021,3.536
		c-0.908,0.829-1.815,1.661-2.699,2.514c-1.323,1.275-2.602,2.59-3.871,3.919c-0.805,0.844-1.622,1.676-2.406,2.542
		c-1.35,1.492-2.64,3.035-3.919,4.588c-0.629,0.762-1.285,1.501-1.896,2.278c-1.853,2.357-3.639,4.769-5.323,7.257l-0.366-0.183
		c-2.903,7.799-5.056,15.335-6.345,22.367C918.332,190.707,947.726,175.35,976.803,175.35z"/>
	<path style="fill:#2E2448;" d="M666.247,444.9c9.96-5.431,21.423-8.348,32.83-8.348c10.192,0,20.338,2.328,29.328,7.273
		c7.539-23.459,32.169-39.223,56.474-39.223c6.774,0,13.522,1.225,19.868,3.848c12.81-18.413,35.317-29.034,57.63-29.034
		c8.85,0,17.666,1.669,25.839,5.186c-5.101-18.84-22.943-33.493-42.412-34.827c-0.984-0.067-1.971-0.101-2.954-0.101
		c-18.475,0-36.579,11.747-43.814,28.801c-11.659-15.238-30.55-25.307-49.486-25.307c-4.182,0-8.366,0.491-12.476,1.526
		c-22.715,5.726-40.227,29.877-35.496,52.82c-2.488-0.275-4.99-0.411-7.49-0.411c-18.44,0-36.852,7.363-50.031,20.29
		c-14.559,14.279-23.13,35.893-20.95,56.307C628.2,466.546,651.286,453.061,666.247,444.9z"/>
	<path style="fill:#2E2448;" d="M1141.462,448.517c-6.293-3.4-13.424-5.062-20.567-5.062c-10.012,0-20.048,3.264-27.834,9.583
		c-6.029-15.438-20.424-27.305-36.727-30.278c-2.768-0.506-5.578-0.752-8.386-0.752c-13.727,0-27.459,5.884-36.666,16.106
		c-7.969-6.892-18.402-10.149-28.962-10.149c-8.067-0.001-16.208,1.899-23.39,5.529c-15.059,7.603-35.361,29.079-34.737,47.09
		c11.01-5.966,18.127-18.087,30.011-23.439c5.566-2.503,11.768-3.709,17.933-3.709c3.026,0,6.041,0.29,8.97,0.86
		c2.341,0.451,26.193,11.706,23.835,13.427c9.547-6.97,21.204-10.263,32.949-10.263c19.739,0,39.724,9.301,50.359,26.081
		c5.092-10.559,17.133-15.778,29.071-15.778c3.126,0,6.245,0.358,9.23,1.072c14.385,3.438,26.341,13.132,37.663,22.644
		C1165.957,474.39,1156.579,456.682,1141.462,448.517z"/>
	<path style="fill:#2E2448;" d="M581.827,385.269c0.371,0,0.742-0.009,1.117-0.025c-6.68-15.229-10.573-30.287-6.48-47.09
		c4.62-18.938,14.052-38.287,31.402-47.161c-2.956-2.301-6.693-3.303-10.471-3.303c-1.904,0-3.819,0.254-5.649,0.725
		c-5.454,1.396-10.314,4.491-14.921,7.741c-7.456,5.267-14.635,11.166-19.879,18.64c-7.344,10.466-10.47,23.812-8.54,36.45
		C550.838,367.187,564.467,385.269,581.827,385.269z"/>
	<path style="fill:#2E2448;" d="M1005.985,354.805c5.82-2.759,12.335-4.192,18.828-4.192c9.058,0,18.077,2.787,25.118,8.647
		c3.531-10.627,14.483-16.963,25.222-20.143c7.657-2.266,15.642-3.389,23.625-3.389c11.395,0,22.79,2.286,33.252,6.805
		c-12.365-11.996-27.317-22.345-44.378-24.754c-2.123-0.3-4.282-0.449-6.445-0.449c-15.222,0-30.784,7.35-37.238,20.984
		c-6.553-4.855-14.625-7.175-22.77-7.176c-8.569,0-17.22,2.568-24.275,7.456c-13.757,9.539-21.316,26.684-20.923,43.42
		C975.711,369.789,996.986,359.078,1005.985,354.805z"/>
	<path style="fill:#2E2448;" d="M610.791,620.448c-21.544,0-40.291-19.047-43.883-40.36c-3.781-22.417,6.591-42.626,20.312-59.442
		c-18.733,3.063-35.58,7.804-46.314,24.334c-14.015,21.57-20.437,52.887-0.829,73.417c8.834,9.252,21.822,13.991,34.621,13.991
		c0.156,0,0.31-0.001,0.465-0.002c12.945-0.116,25.6-4.799,36.396-11.947C611.304,620.445,611.046,620.448,610.791,620.448z"/>
	<path style="fill:#3D2D5E;" d="M655.884,768.288c3.659,1.934,8.124,0.872,12.061-0.395c20.492-6.601,39.576-17.354,61.335-19.313
		l0.317-0.029c23.537-2.027,47.532,1.452,70.543,6.153c7.888,1.612,15.91,3.416,23.907,2.523c8-0.891,16.144-5.047,19.496-12.365
		c3.513-7.674,0.868-17.125-4.687-23.478c-5.552-6.354-13.503-10.095-21.508-12.765c-44.319-14.777-106.233-6.724-145.612,18.772
		c-9.07,5.871-16.935,14.275-20.029,24.628C649.966,757.842,650.512,765.448,655.884,768.288z"/>
	<path style="fill:#3D2D5E;" d="M1079.157,763.021c8.046,0.263,15.902-2.163,23.637-4.385c22.572-6.49,46.224-11.834,69.846-11.654
		l0.319,0.005c21.847,0.253,41.713,9.476,62.658,14.456c4.025,0.955,8.558,1.666,12.053-0.551
		c5.133-3.249,5.084-10.875,2.894-16.546c-3.892-10.08-12.392-17.842-21.895-22.986c-41.252-22.334-103.605-25.52-146.634-7.323
		c-7.771,3.284-15.408,7.64-20.445,14.407c-5.038,6.768-6.938,16.399-2.833,23.771
		C1062.67,759.25,1071.114,762.758,1079.157,763.021z"/>
	<path style="fill:#3D2D5E;" d="M832.483,791.558c-5.142-1.305-10.537-2.057-16.134-2.057c-27.261,0-50.275,16.549-57.75,39.255
		c15.185,0.009,27.495,10.109,27.495,22.567c0,10.697-9.086,19.635-21.263,21.96c10.584,15.915,29.665,26.581,51.519,26.581
		c33.316,0,60.324-24.707,60.324-55.182c0-1.434-0.117-2.842-0.234-4.249C874.478,816.972,856.511,797.654,832.483,791.558z"/>
	<path style="fill:#3D2D5E;" d="M1134.086,830.614c3.35-1.191,7.04-1.858,10.925-1.858c15.194,0,27.51,10.105,27.51,22.567
		c0,12.463-12.317,22.567-27.51,22.567c-1.341,0-2.649-0.105-3.939-0.257c10.63,15.721,29.591,26.231,51.284,26.231
		c33.318,0,60.324-24.707,60.324-55.182c0-12.946-4.909-24.825-13.07-34.238c-6.071-7.002-13.943-12.621-22.999-16.266
		c-7.427-2.99-15.62-4.677-24.255-4.677C1164.365,789.501,1140.895,806.966,1134.086,830.614z"/>
	<path style="fill:#BE1C46;" d="M1139.771,1143.401c-0.906-0.599-1.885-1.159-2.936-1.685c-13.596-6.777-36.779-4.351-51.588-4.098
		c-18.09,0.346-36.181,2.266-53.834,6.329c-40.115,9.223-78.397,30.052-103.773,62.48c-5.294,6.743-9.915,15.478-10.804,23.761
		c13.323,2.031,26.828,2.938,40.314,2.65C1027.099,1231.367,1095.688,1197.691,1139.771,1143.401z"/>
	<path style="fill:#FFFEFE;" d="M811.596,1096.453c61.54,37.305,140.187,38.426,208.687,16.37
		c17.33-5.583,34.478-12.706,48.651-24.107c11.929-9.608,21.624-22.587,25.632-37.233c-23.584,7.937-47.437,22.675-64.874,28.911
		c-47.437,16.931-99.567,20.916-148.906,10.568c-24.49-5.13-48.144-13.593-72.597-18.87c-7.069-1.525-14.699-2.612-22.095-2.538
		C788.792,1081.135,802.697,1091.055,811.596,1096.453z"/>
	<path style="fill:#8F5551;" d="M931.832,957.496c-0.999-4.667-3.013-10.012-7.632-11.225c-3.006-0.789-6.202,0.531-8.665,2.427
		c-7.698,5.919-9.91,16.502-10.511,26.192c-0.59,9.471-0.139,19.128,2.724,28.18c3.328,10.519,18.999,34.606,33.22,25.194
		c11.615-7.688-2.005-29.082-3.973-38.465C934.755,979.123,934.11,968.161,931.832,957.496z"/>
	<path style="fill:#2E2448;" d="M689.029,306.797c9.283-6.945,20.932-10.977,32.547-10.977c4.963,0,9.919,0.736,14.682,2.295
		c5.703-15.764,20.593-27.068,36.789-31.402c6.328-1.692,12.827-2.432,19.359-2.432c10.184,0,20.447,1.799,30.267,4.594
		c-15.897-12.057-33.56-23.639-53.479-24.771c-0.789-0.045-1.583-0.067-2.377-0.067c-19.253,0-39.618,13.083-40.958,32.192
		c-7.011-3.985-15.016-5.893-23.052-5.893c-14-0.001-28.097,5.789-37.211,16.479c-14.35,16.829-14.765,43.928-0.936,61.181
		C657.422,338.966,682.474,311.703,689.029,306.797z"/>
	<ellipse style="fill:#AB6A61;" cx="694.449" cy="1012.604" rx="64.131" ry="46.485"/>
	<path style="fill:#AB6A61;" d="M1286.521,1012.604c0-12.167-6.707-23.208-17.594-31.494c-12.083-9.196-29.33-14.99-48.545-14.99
		c-36.526,0-66.136,20.813-66.136,46.484c0,25.672,29.61,46.485,66.136,46.485c6.772,0,13.301-0.722,19.453-2.051
		C1266.867,1051.198,1286.521,1033.517,1286.521,1012.604z"/>
	<path style="fill:#EC677A;" d="M1240.899,1684.891c-1.53-29.184-17.384-58.982-44.285-70.407
		c-28.926-12.287-63.905-0.463-86.068,21.812c-22.166,22.276-33.623,53.013-41.045,83.552c-7.819-35.308-27.97-69.135-59.427-86.982
		c-31.457-17.846-74.687-16.395-100.923,8.497c-34.451,32.687-28.818,89.71-9.625,133.149
		c25.155,56.926,69.242,105.291,123.603,135.596c73.281,40.848,165.854-86.193,195.089-141.627
		C1231.849,1742.63,1242.426,1714.08,1240.899,1684.891z"/>
	<path style="fill:#F7C3CF;" d="M935.016,1719.098c-1.581-23.367,8.46-40.545,14.071-62.202c0.841-3.249-2.938-6.679-5.993-4.609
		c-35.067,23.815-35.362,114.499,6.514,132.312c4.141,1.759,9.678-1.169,8.156-6.27
		C951.45,1757.169,936.629,1742.966,935.016,1719.098z"/>
	<path style="fill:#F7C3CF;" d="M992.65,1832.852c-4.553-4.94-7.259-11.191-9.33-17.5c-2.102-6.392-12.577-5.681-12.241,1.656
		c0.682,14.87,14.46,39.123,32.38,35.279c2.617-0.56,3.876-3.951,2.504-6.158C1002.605,1840.73,996.907,1837.47,992.65,1832.852z"/>
	<path style="fill:#F59C3D;" d="M646.761,1821.543c-8.193,47.308-11.255,95.508-9.226,143.488c0.923,0.507,1.866,0.999,2.809,1.486
		c21.082,11.021,43.033,21.228,65.618,30.47c-3.735-8.263-7.306-16.585-10.711-25.033
		C675.565,1923.054,659.323,1872.749,646.761,1821.543z"/>
	<path style="fill:#F59C3D;" d="M1753.078,1532.467c-27.135,29.291-58.112,54.997-91.737,76.472
		c-66.704,42.636-144.158,68.775-223.315,73.126c-52.275,2.879-108.304-4.55-148.562-38.051
		c8.139,66.797,16.005,136.365-6.073,199.936c-15.389,44.317-44.446,82.636-76.528,116.838
		c-16.169,17.242-33.226,33.646-51.079,49.125c56.606-27.732,106.853-70.601,146.134-131.98
		c19.593-30.631,21.442-66.211,20.483-101.559c-0.273-10.061-0.78-20.083-1.16-29.983c76.455,17.583,158.948,10.607,232.651-17.383
		c101.978-38.714,187.352-115.011,247.132-206.236l-16.514-16.404l-1.611-1.604l-5.656-5.631
		C1769.193,1511.605,1761.327,1523.585,1753.078,1532.467z"/>
</g>
</svg>
