<?xml version="1.0" encoding="utf-8"?>
<!-- Generator: Adobe Illustrator 27.5.0, SVG Export Plug-In . SVG Version: 6.00 Build 0)  -->
<svg version="1.1" id="Capa_2" xmlns="http://www.w3.org/2000/svg" xmlns:xlink="http://www.w3.org/1999/xlink" x="0px" y="0px"
	 viewBox="0 0 2122 2122" style="enable-background:new 0 0 2122 2122;" xml:space="preserve">
<path style="fill:#FFD757;" d="M1611.921,1729.188c-1.998-2.013-3.987-4.034-5.984-6.048
	c-16.053-16.189-32.059-32.426-48.018-48.713c-8.514-8.689-17.006-17.401-25.482-26.128c-9.599-9.883-19.172-19.792-28.71-29.733
	l-0.746,0.037l0.719-0.066c-14.473-15.085-28.853-30.256-43.153-45.503v-0.001c-8.229-8.775-16.425-17.581-24.585-26.419
	c-10.503-11.376-20.942-22.809-31.317-34.303c-11.709-12.972-23.316-26.036-34.838-39.177c-6.354-7.247-12.739-14.469-19.03-21.773
	c-38.112-44.244-74.986-89.647-110.11-136.348c0,0,73.761-81.121,94.2-114.18l-0.057-0.016
	c23.009-29.994,45.18-60.636,65.987-92.167c1.297-1.965,2.559-3.96,3.848-5.932c6.497-9.936,12.884-19.962,19.152-30.073
	c28.528-46.015,54.401-93.867,74.478-144.091c12.748-31.891,22.642-64.458,29.909-97.625c6.648-30.338,11.109-61.175,13.322-92.511
	c1.532-21.699,1.682-43.549,0.327-65.299c-2.245-36.046-8.632-71.82-19.781-106.182c-10.477-32.288-24.076-63.958-41.75-93.018
	c-13.803-22.693-30.09-43.794-49.324-62.352c-5.665-5.466-11.379-10.82-17.184-16.034c-17.932-16.107-36.754-30.834-57.859-43.029
	c-15.397-8.897-31.426-17.159-47.898-24.345c-1.328,0.199-2.656,0.408-4.039,0.408c-8.65,0-16.269-4.098-21.276-10.371
	c-5.333-1.869-10.69-3.651-16.095-5.225c-21.18-6.177-42.111-10.913-63.276-14.259c-20.675-3.268-41.571-5.21-63.147-5.829
	c-2.822-0.081-5.656-0.039-8.485-0.059l0.255,0.758l0.099,0.294l-0.02,0.01c1.33,4.763,1.511,10.007-0.279,15.531
	c-3.482,10.746-13.294,18.536-24.576,19.113c-15.745,0.809-28.764-11.72-28.764-27.288c0-1.894,0.264-3.717,0.639-5.499
	c-25.032,2.896-49.871,7.761-73.961,14.267l-0.814,0.208c-74.096,20.134-143.488,62.507-192.877,121.595
	c-2.129,2.547-4.064,5.279-6.12,7.899c-8.562,10.913-16.582,22.317-23.898,34.207c-8.043,13.069-15.412,26.551-22.006,40.212
	c-11.847,24.544-20.77,50.494-26.627,77.107c-2.673,12.144-4.809,24.375-6.499,36.656c-8.041,58.447-5.292,118.138,5.447,176.093
	c4.39,23.69,9.937,47.174,16.388,70.423c10.612,38.249,23.68,75.865,38.139,112.721c6.121,15.6,12.473,31.095,19.055,46.487
	c5.599,13.093,11.391,26.096,17.341,39.026c14.382,31.25,29.785,62.024,46.381,92.217c9.933,18.07,20.275,35.9,30.909,53.551
	c8.952,14.86,18.135,29.579,27.535,44.161c2.446,3.793,4.888,7.588,7.362,11.363c12.898,19.684,26.159,39.132,39.762,58.343
	l-87.496,87.851c-11.02,10.44-22.115,20.801-33.33,31.033c-8.297,7.396-16.675,14.7-25.082,21.971
	c-7.741,6.697-15.551,13.311-23.383,19.9c-62.561,52.627-127.962,101.856-196.057,147.121c-1.733,1.152-3.498,2.252-5.234,3.4
	c-15.928,10.52-32.026,20.777-48.225,30.873c-8.047,5.016-16.066,10.073-24.175,14.986c-15.195,9.204-32.004,30.791-29.298,49.987
	c2.821,20.021,24.764,34.223,41.972,39.943c1.598,0.532,3.241,0.954,4.86,1.438c26.844,8.023,56.33,9.592,83.795,5.064
	c10.674-2.277,21.349-4.553,32.024-6.83c18.473-5.117,35.6-13.091,51.383-23.919c30.127-18.251,59.754-37.311,88.958-56.993
	c11.557-7.789,23.052-15.667,34.458-23.675c12.576-8.83,25.058-17.791,37.445-26.885c12.28-9.015,24.468-18.156,36.558-27.427
	c18.064-13.853,35.876-28.029,53.492-42.449l0.025,0.033c69.878-54.838,117.259-102.602,117.259-102.602
	c22.938,27.667,46.436,54.854,70.291,81.728c12.092,13.623,24.272,27.166,36.557,40.617c3.986,4.365,7.961,8.737,11.966,13.085
	c19.785,21.482,39.783,42.77,59.946,63.9c18.905,19.813,37.937,39.502,57.073,59.08c10.231,10.468,20.551,20.85,30.831,31.271
	c10.284,10.426,20.528,20.893,30.845,31.285c1.237,1.654,2.597,3.13,3.959,4.603c5.269,5.69,11.489,10.001,18.638,12.96
	c0.755,0.313,1.45,0.712,2.226,0.995c11.225,6.389,23.374,10.245,36.444,11.567c14.931,2.577,29.869,2.979,44.815,1.298
	c4.915-4.747,11.579-7.699,18.952-7.699c5.084,0,9.786,1.481,13.863,3.899c5.71-1.18,11.394-2.543,17.024-4.301
	c9.386-3.502,18.773-7.003,28.16-10.505c15.544-6.817,29.022-16.471,40.433-28.964c5.72-7.888,11.545-18.677,12.576-29.255
	C1619.884,1742.999,1618.131,1735.444,1611.921,1729.188z M1224.912,1001.35l-0.009,0.02l-0.23-0.076
	c-6.605,12.611-13.474,25.083-20.629,37.366l-0.692,1.099c-6.784,11.083-13.793,22.024-20.922,32.885
	c-2.68,4.085-5.42,8.13-8.143,12.186c-5.134,7.206-33.385,46.861-45.801,64.521l-0.013,0.018c-0.538-0.899-1.111-1.777-1.648-2.676
	c-14.5-24.297-28.311-48.997-41.446-74.05c-18.649-35.568-35.893-71.868-51.447-108.913c-10.337-25.584-20.075-51.618-28.82-78.01
	c-1.246-3.761-2.453-7.535-3.657-11.311c-18.145-56.902-31.387-115.412-35.438-174.73c-0.604-8.848-0.879-17.705-0.999-26.561
	c-0.224-16.465,0.299-32.93,1.752-49.344c1.046-7.62,2.392-15.171,3.879-22.687c3.538-17.893,8.335-35.461,14.45-52.575
	c5.563-15.571,12.224-30.751,20.013-45.454c0.905-1.707,1.738-3.444,2.673-5.138c5.328-8.296,11.095-16.269,17.159-24.002
	c7.966-10.155,16.499-19.853,25.762-28.9c6.434-5.211,13.115-10.091,20.011-14.668c3.595-1.825,7.217-3.595,10.896-5.241
	c0.47-0.138,0.944-0.262,1.415-0.397l1.039-0.113c1.325-0.005,2.651,0.02,3.975,0.036c0.84,0.01,1.68,0.008,2.519,0.024
	c6.022,0.808,12.013,1.799,17.973,2.978c7.68,2.292,15.223,4.972,22.694,7.845c5.178,1.992,10.339,4.029,15.415,6.287
	c17.036,9.229,33.126,20.027,48.215,32.148c2.792,2.243,5.614,4.448,8.332,6.788l0.161,0.169
	c29.253,29.105,51.993,63.829,68.64,101.552c17.761,46.744,26.282,96.342,27.205,146.186c0.341,18.417-0.324,36.867-1.987,55.221
	c-1.661,12.807-3.847,25.498-6.422,38.094c-2.802,13.718-6.121,27.305-9.912,40.759c-1.104,3.92-2.256,7.825-3.438,11.722
	c-8.103,26.705-18.003,52.87-29.334,78.443c-7.248,16.358-15.071,32.47-23.374,48.333l0.258,0.086l0.294,0.098l0.009-0.02"/>
<g>
	<path style="fill:#E8395B;" d="M885.273,473.919l-6.474-19.318c-0.196-0.539-0.386-1.08-0.548-1.634l-0.099-0.294l0.021-0.01
		c-0.491-1.758-0.825-3.582-0.962-5.46c-0.045-0.626-0.069-1.259-0.069-1.897c0-4.717,1.195-9.153,3.298-13.026
		c4.628-8.517,13.652-14.3,24.027-14.3c0.944,0,1.876,0.049,2.794,0.141c4.593,0.467,8.85,2.072,12.484,4.527
		c1.453,0.982,2.808,2.1,4.044,3.338c4.946,4.944,8.004,11.775,8.004,19.321c0,2.552-0.377,5.012-1.031,7.357l0.02,0.01
		l-0.099,0.294c-0.162,0.554-0.352,1.095-0.548,1.634l-6.473,19.318h81.451v-81.451l19.319,6.473c0.54,0.196,1.08,0.386,1.635,0.547
		l0.295,0.099l0.009-0.022c1.172,0.327,2.374,0.587,3.601,0.762c1.227,0.176,2.481,0.269,3.757,0.269
		c0.958,0,1.905-0.052,2.837-0.148l0.94-0.145c0.609-0.083,1.219-0.162,1.814-0.284l1.074-0.276
		c0.531-0.134,1.065-0.257,1.583-0.421l1.093-0.4c0.487-0.178,0.977-0.345,1.451-0.549l1.074-0.518
		c0.451-0.218,0.906-0.428,1.341-0.669l1.038-0.631l1.235-0.78l0.987-0.735l1.132-0.882l0.918-0.835l1.032-0.982l0.837-0.919
		l0.927-1.076l0.751-1.004l0.814-1.158l0.657-1.08l0.695-1.232l0.553-1.147l0.571-1.304l0.443-1.208
		c0.157-0.45,0.307-0.902,0.44-1.363l0.325-1.265c0.112-0.468,0.214-0.939,0.301-1.417l0.2-1.311
		c0.065-0.486,0.117-0.972,0.156-1.466c0.035-0.449,0.055-0.898,0.067-1.354l0.039-0.765l-0.037-0.744
		c-0.014-0.523-0.036-1.047-0.079-1.565l-0.074-0.812c-0.066-0.569-0.156-1.132-0.258-1.694
		c-2.024-11.364-11.059-20.275-22.484-22.125l-0.746-0.114l-1.252-0.151c-0.788-0.072-1.57-0.117-2.342-0.118l-0.051-0.003
		l-1.043,0.038l-0.808,0.03l-1.133,0.119l-0.744,0.08l-1.225,0.216l-0.61,0.108c-0.605,0.129-1.203,0.275-1.795,0.441l-0.009-0.019
		l-0.295,0.097c-0.555,0.162-1.095,0.353-1.635,0.548l-19.319,6.474V310.01l-0.814,0.208
		c-74.096,20.133-143.488,62.507-192.877,121.594c-2.129,2.547-4.064,5.28-6.12,7.9v34.206H885.273z"/>
	<path style="fill:#71CBF4;" d="M984.32,548.252l-0.008,0.02c-2.344-0.655-4.805-1.031-7.358-1.031
		c-15.091,0-27.325,12.234-27.325,27.326c0,12.912,8.984,23.666,21.022,26.521c3.538-17.894,8.335-35.461,14.45-52.575l-0.485-0.162
		L984.32,548.252z"/>
	<path style="fill:#71CBF4;" d="M1108.536,427.639c7.68,2.291,15.223,4.971,22.694,7.845l-0.368-0.971l-0.517-1.075
		c-0.218-0.451-0.428-0.905-0.67-1.342l-0.631-1.038l-0.779-1.235l-0.738-0.986l-0.882-1.133l-0.834-0.917l-0.981-1.031
		l-0.922-0.839l-1.073-0.926l-1.004-0.752l-1.156-0.813l-1.079-0.655l-1.236-0.698l-1.144-0.55l-1.307-0.574l-1.205-0.442
		c-0.452-0.157-0.905-0.308-1.368-0.44l-1.262-0.324c-0.469-0.112-0.94-0.215-1.419-0.302l-1.31-0.199
		c-0.485-0.064-0.973-0.117-1.466-0.154c-0.448-0.034-0.897-0.056-1.351-0.069l-0.768-0.039l-0.745,0.038
		c-0.524,0.014-1.047,0.036-1.564,0.078l-0.811,0.074c-0.568,0.067-1.13,0.156-1.688,0.258c-4.899,0.87-9.29,3.102-12.908,6.208
		c0.84,0.01,1.68,0.008,2.519,0.023C1096.585,425.469,1102.576,426.46,1108.536,427.639z"/>
	<path style="fill:#71CBF4;" d="M1203.352,480.875v-6.957h-8.493c2.792,2.243,5.614,4.448,8.332,6.788L1203.352,480.875z"/>
	<path style="fill:#71CBF4;" d="M1007.786,497.92c5.328-8.296,11.095-16.268,17.159-24.002h-19.832v29.139
		C1006.017,501.351,1006.851,499.614,1007.786,497.92z"/>
	<path style="fill:#3F5EA8;" d="M878.799,692.437c-0.196,0.54-0.386,1.08-0.548,1.634l-0.099,0.295l0.021,0.01
		c-0.651,2.332-1.026,4.781-1.029,7.32l0.017,0.399c0.008,0.577,0.043,1.148,0.087,1.716c0.043,0.579,0.132,1.143,0.211,1.708
		c0.14,1.006,0.395,1.973,0.642,2.941c0.19,0.747,0.465,1.454,0.714,2.175c3.157,8.672,10.447,15.276,19.253,17.451
		c1.611,0.397,3.266,0.665,4.96,0.753c15.719,0.805,28.718-11.68,28.761-27.213c-0.011-2.514-0.382-4.941-1.027-7.25l0.02-0.01
		l-0.099-0.295c-0.162-0.554-0.352-1.094-0.548-1.634l-6.472-19.318h41.357c-0.224-16.465,0.299-32.93,1.752-49.344
		c1.046-7.619,2.392-15.17,3.879-22.687c-12.038-2.855-21.022-13.609-21.022-26.521c0-15.092,12.235-27.326,27.325-27.326
		c2.553,0,5.014,0.376,7.358,1.031l0.008-0.02l0.295,0.099l0.485,0.162c5.563-15.571,12.224-30.752,20.013-45.455v-29.139h-81.451
		l6.473-19.318c0.196-0.539,0.387-1.08,0.548-1.634l0.099-0.294l-0.02-0.01c0.654-2.344,1.031-4.804,1.031-7.357
		c0-7.546-3.058-14.377-8.004-19.321c-1.236-1.238-2.59-2.356-4.044-3.338c-3.635-2.455-7.891-4.059-12.484-4.527
		c-0.918-0.092-1.85-0.141-2.794-0.141c-10.375,0-19.399,5.783-24.027,14.3c-2.103,3.873-3.298,8.309-3.298,13.026
		c0,0.638,0.023,1.271,0.069,1.897c0.137,1.878,0.471,3.702,0.962,5.46l-0.021,0.01l0.099,0.294
		c0.162,0.554,0.352,1.095,0.548,1.634l6.474,19.318h-79.971v80.658l16.947-5.679c0.539-0.195,1.08-0.385,1.635-0.547l0.295-0.099
		l0.009,0.02c2.344-0.655,4.805-1.031,7.358-1.031l0.499,0.025l0.695-0.025c15.09,0,27.324,12.234,27.324,27.326
		c0,15.09-12.234,27.324-27.325,27.324l-0.694-0.026l-0.499,0.026c-2.553,0-5.013-0.376-7.358-1.031l-0.009,0.02l-0.295-0.098
		c-0.555-0.162-1.096-0.353-1.635-0.549l-16.947-5.677v78.562h79.97L878.799,692.437z"/>
	<path style="fill:#E8395B;" d="M965.019,673.119h-41.357l6.472,19.318c0.196,0.54,0.387,1.08,0.548,1.634l0.099,0.295l-0.02,0.01
		c0.645,2.309,1.016,4.736,1.027,7.25l0.004,0.107c0,15.091-12.234,27.325-27.326,27.325c-2.209,0-4.344-0.29-6.399-0.786
		c-9.067-2.183-16.245-8.924-19.253-17.636c-0.249-0.72-0.524-1.428-0.714-2.175c-0.247-0.968-0.501-1.935-0.642-2.941
		c-0.079-0.566-0.168-1.13-0.211-1.708c-0.044-0.568-0.079-1.139-0.087-1.716l-0.018-0.363l0.001-0.036
		c0.004-2.539,0.378-4.989,1.029-7.32l-0.021-0.01l0.099-0.295c0.162-0.554,0.352-1.094,0.548-1.634l6.473-19.318h-79.97v2.094
		v79.357l-1.482-0.498v0.04l-17.952-6.017c-0.54-0.194-1.081-0.385-1.635-0.547l-0.294-0.099l-0.008,0.021
		c-2.323-0.649-4.762-1.022-7.291-1.029c-15.545,0.027-28.046,13.033-27.24,28.762c0.578,11.281,8.367,21.093,19.114,24.575
		c1.995,0.646,3.951,1.028,5.864,1.199c0.724,0.058,1.45,0.11,2.188,0.11l0.136-0.005c2.507-0.013,4.924-0.383,7.229-1.026
		l0.008,0.02l0.294-0.097c0.555-0.163,1.095-0.353,1.635-0.548l17.952-6.017v0.039l1.482-0.496v81.451h79.971l-6.474-19.319
		c-0.196-0.539-0.386-1.079-0.548-1.635l-0.099-0.295l0.021-0.009c-0.491-1.758-0.825-3.582-0.962-5.461
		c-0.045-0.625-0.069-1.259-0.069-1.897c0-4.716,1.195-9.152,3.298-13.024c4.628-8.517,13.652-14.3,24.027-14.3
		c0.944,0,1.876,0.048,2.794,0.141c4.593,0.466,8.85,2.07,12.484,4.527c1.453,0.981,2.808,2.1,4.044,3.336
		c4.946,4.945,8.004,11.777,8.004,19.322c0,2.554-0.377,5.014-1.031,7.358l0.02,0.009l-0.099,0.295
		c-0.162,0.556-0.352,1.096-0.548,1.635l-6.473,19.319h77.794c-18.145-56.902-31.387-115.412-35.438-174.73
		C965.414,690.831,965.139,681.975,965.019,673.119z"/>
	<path style="fill:#71CBF4;" d="M1259.595,975.057c0-9.175-4.554-17.252-11.491-22.203c-7.248,16.358-15.071,32.47-23.374,48.332
		l0.258,0.086l0.294,0.099l0.009-0.02c2.296,0.642,4.706,1.004,7.202,1.02C1247.481,1002.25,1259.595,990.071,1259.595,975.057z"/>
	<path style="fill:#71CBF4;" d="M1182.43,1072.644h20.922v-32.885C1196.568,1050.842,1189.559,1061.783,1182.43,1072.644z"/>
	<path style="fill:#71CBF4;" d="M1033.933,963.732c-10.337-25.584-20.075-51.618-28.82-78.01v69.989l-18.863-6.322
		c-0.539-0.195-1.08-0.385-1.635-0.547l-0.295-0.099l-0.008,0.02c-2.344-0.655-4.805-1.031-7.358-1.031
		c-15.091,0-27.325,12.234-27.325,27.325c0,15.091,12.235,27.325,27.325,27.325c2.553,0,5.014-0.377,7.358-1.032l0.008,0.02
		l0.295-0.099c0.555-0.161,1.096-0.351,1.635-0.548l18.863-6.321v78.241h80.267
		C1066.731,1037.076,1049.487,1000.777,1033.933,963.732z"/>
	<path style="fill:#3F5EA8;" d="M884.247,1075.703h0.263l-5.711,17.042c-0.196,0.54-0.386,1.081-0.548,1.635l-0.099,0.295
		l0.021,0.009c-0.469,1.681-0.786,3.426-0.933,5.218l-0.044,0.614l-0.035,1.101c0.192,14.925,12.336,26.969,27.306,26.969
		c14.937,0,27.055-11.99,27.302-26.866c-0.031-2.437-0.381-4.792-1.008-7.035l0.02-0.009l-0.099-0.295
		c-0.162-0.555-0.352-1.096-0.548-1.635l-5.71-17.042h0.262l-1.024-3.058h81.451v-78.241l-18.863,6.321
		c-0.539,0.197-1.08,0.387-1.635,0.548l-0.295,0.099l-0.008-0.02c-2.344,0.655-4.805,1.032-7.358,1.032
		c-15.091,0-27.325-12.234-27.325-27.325c0-15.091,12.235-27.325,27.325-27.325c2.553,0,5.014,0.377,7.358,1.031l0.008-0.02
		l0.295,0.099c0.555,0.162,1.096,0.353,1.635,0.547l18.863,6.322v-69.989c-1.246-3.762-2.453-7.535-3.657-11.312h-77.794
		l6.473-19.319c0.196-0.539,0.387-1.079,0.548-1.635l0.099-0.295l-0.02-0.009c0.654-2.344,1.031-4.804,1.031-7.358
		c0-7.544-3.058-14.376-8.004-19.322c-1.236-1.236-2.59-2.354-4.044-3.336c-3.635-2.456-7.891-4.06-12.484-4.527
		c-0.918-0.093-1.85-0.141-2.794-0.141c-10.375,0-19.399,5.783-24.027,14.3c-2.103,3.872-3.298,8.308-3.298,13.024
		c0,0.639,0.023,1.272,0.069,1.897c0.137,1.879,0.471,3.703,0.962,5.461l-0.021,0.009l0.099,0.295
		c0.162,0.556,0.352,1.096,0.548,1.635l6.474,19.319h-79.971v80.657l16.947-5.679c0.539-0.195,1.08-0.385,1.635-0.547l0.295-0.099
		l0.009,0.02c2.344-0.655,4.805-1.031,7.358-1.031l0.499,0.025l0.695-0.025c15.09,0,27.324,12.234,27.324,27.325
		c0,15.091-12.234,27.325-27.325,27.325l-0.694-0.026l-0.499,0.026c-2.553,0-5.013-0.377-7.358-1.032l-0.009,0.02l-0.295-0.099
		c-0.555-0.161-1.096-0.351-1.635-0.548l-16.947-5.678v38.573c5.599,13.092,11.391,26.096,17.341,39.026h62.629L884.247,1075.703z"
		/>
	<path style="fill:#71CBF4;" d="M732.74,653.962l0.021,0.009l-0.098,0.294c-0.162,0.555-0.353,1.096-0.547,1.637l-5.77,17.217
		h78.956v-78.562l16.947,5.677c0.539,0.196,1.08,0.387,1.635,0.549l0.295,0.098l0.009-0.02c2.344,0.655,4.805,1.031,7.358,1.031
		l0.499-0.026l0.694,0.026c15.091,0,27.325-12.234,27.325-27.324c0-15.092-12.234-27.326-27.324-27.326l-0.695,0.025l-0.499-0.025
		c-2.553,0-5.013,0.376-7.358,1.031l-0.009-0.02l-0.295,0.099c-0.555,0.162-1.096,0.353-1.635,0.547l-16.947,5.679v-80.658h-1.482
		h-22.417c-8.043,13.069-15.412,26.551-22.006,40.212c-11.847,24.544-20.77,50.494-26.627,77.107
		c-2.673,12.144-4.809,24.375-6.499,36.656c4.619,4.893,7.5,11.45,7.5,18.709C733.772,649.158,733.396,651.617,732.74,653.962z"/>
	<path style="fill:#71CBF4;" d="M822.249,1000.724c0.539,0.197,1.08,0.387,1.635,0.548l0.295,0.099l0.009-0.02
		c2.344,0.655,4.805,1.032,7.358,1.032l0.499-0.026l0.694,0.026c15.091,0,27.325-12.234,27.325-27.325
		c0-15.091-12.234-27.325-27.324-27.325l-0.695,0.025l-0.499-0.025c-2.553,0-5.013,0.377-7.358,1.031l-0.009-0.02l-0.295,0.099
		c-0.555,0.162-1.096,0.353-1.635,0.547l-16.947,5.679V874.41h-1.482h-55.713c10.612,38.249,23.68,75.865,38.139,112.722
		c6.121,15.599,12.473,31.095,19.055,46.487v-38.573L822.249,1000.724z"/>
	<path style="fill:#E8395B;" d="M1005.113,1192.485l19.319,6.474c0.54,0.195,1.08,0.386,1.635,0.547l0.295,0.099l0.009-0.02
		c1.172,0.326,2.374,0.585,3.601,0.76c1.227,0.178,2.481,0.27,3.757,0.27c0.958,0,1.905-0.051,2.837-0.147l0.94-0.144
		c0.609-0.084,1.219-0.162,1.814-0.284l1.074-0.277c0.531-0.133,1.065-0.257,1.583-0.419l1.093-0.4
		c0.487-0.177,0.977-0.346,1.451-0.549l1.074-0.517c0.451-0.219,0.906-0.429,1.341-0.67l1.038-0.631l1.235-0.778l0.987-0.739
		l1.132-0.881l0.918-0.833l1.032-0.982l0.837-0.92l0.927-1.075l0.751-1.003l0.814-1.157l0.657-1.081l0.695-1.233l0.553-1.147
		l0.571-1.303l0.443-1.21c0.157-0.449,0.307-0.901,0.44-1.362l0.325-1.266c0.112-0.468,0.214-0.938,0.301-1.416l0.2-1.312
		c0.065-0.485,0.117-0.972,0.156-1.466c0.035-0.449,0.055-0.899,0.067-1.353l0.039-0.766l-0.037-0.743
		c-0.014-0.526-0.036-1.049-0.079-1.567l-0.074-0.811c-0.066-0.569-0.156-1.132-0.258-1.691
		c-2.024-11.368-11.059-20.278-22.484-22.129l-0.746-0.114l-1.252-0.151c-0.788-0.072-1.57-0.116-2.342-0.119l-0.051,0l-1.043,0.037
		l-0.808,0.03l-1.133,0.119l-0.744,0.08l-1.225,0.217l-0.61,0.109c-0.605,0.129-1.203,0.275-1.795,0.439l-0.009-0.021l-0.295,0.098
		c-0.555,0.162-1.095,0.353-1.635,0.549l-19.319,6.473v-78.394v-3.058h-81.451l1.024,3.058l5.448,16.26
		c0.196,0.54,0.387,1.082,0.548,1.635l0.099,0.295l-0.02,0.007c0.654,2.345,1.031,4.806,1.031,7.359l-0.023,0.46
		c-0.247,14.876-12.365,26.866-27.302,26.866c-14.97,0-27.114-12.044-27.306-26.969l-0.018-0.357l0.053-0.744l0.044-0.614
		c0.109-2.064,0.397-4.078,0.933-6.001l-0.021-0.007l0.099-0.295c0.162-0.554,0.352-1.095,0.548-1.635l5.448-16.26l1.025-3.058
		h-62.629c14.382,31.25,29.785,62.025,46.381,92.217c9.933,18.071,20.275,35.9,30.909,53.551c1.479-0.248,2.984-0.416,4.533-0.416
		c0.944,0,1.876,0.048,2.794,0.141c4.593,0.466,8.85,2.072,12.484,4.527c1.453,0.981,2.808,2.1,4.044,3.336
		c4.946,4.945,8.004,11.777,8.004,19.323c0,2.552-0.377,5.012-1.031,7.357l0.02,0.008l-0.099,0.295
		c-0.162,0.554-0.352,1.095-0.548,1.635l-2.666,7.956c2.446,3.793,4.888,7.588,7.362,11.363h70.282V1192.485z"/>
	<path style="fill:#71CBF4;" d="M1206.406,1394.699v-0.127l16.946,5.681c0.539,0.194,1.081,0.385,1.635,0.547l0.294,0.098
		l0.009-0.021c2.296,0.64,4.706,1.004,7.202,1.02c14.988-0.121,27.102-12.298,27.102-27.315c0-15.015-12.114-27.193-27.102-27.313
		c-2.496,0.016-4.906,0.378-7.201,1.02l-0.01-0.021l-0.295,0.1c-0.555,0.16-1.096,0.351-1.635,0.547l-16.946,5.677v-0.126
		l-3.054,1.023v-81.553h-78.398l6.473-19.319c0.196-0.54,0.386-1.081,0.548-1.635l0.099-0.295l-0.02-0.008
		c0.654-2.344,1.03-4.805,1.03-7.357c0-0.958-0.051-1.905-0.148-2.838l-0.144-0.94c-0.083-0.61-0.162-1.219-0.285-1.813
		l-0.276-1.075c-0.133-0.529-0.256-1.065-0.42-1.582l-0.4-1.093c-0.177-0.487-0.345-0.978-0.549-1.452l-0.517-1.073
		c-0.218-0.451-0.428-0.905-0.67-1.343l-0.631-1.038l-0.779-1.236l-0.738-0.986l-0.882-1.132l-0.834-0.917l-0.981-1.032
		l-0.922-0.837l-1.073-0.927l-1.004-0.751l-1.156-0.814l-1.079-0.656l-1.236-0.698l-1.144-0.551l-1.307-0.573l-1.205-0.441
		c-0.452-0.158-0.905-0.307-1.368-0.44l-1.262-0.325c-0.469-0.111-0.94-0.214-1.419-0.301l-1.31-0.2
		c-0.485-0.063-0.973-0.117-1.466-0.155c-0.448-0.034-0.897-0.056-1.351-0.069l-0.768-0.039l-0.745,0.038
		c-0.524,0.014-1.047,0.036-1.564,0.079l-0.811,0.073c-0.568,0.066-1.13,0.157-1.688,0.258
		c-11.369,2.022-20.281,11.058-22.132,22.485l-0.114,0.746l-0.15,1.251c-0.073,0.789-0.117,1.57-0.118,2.342l-0.003,0.053
		l0.038,1.043l0.029,0.808l0.121,1.154l0.078,0.721l0.219,1.247l0.105,0.591c0.128,0.605,0.275,1.203,0.44,1.794l-0.02,0.008
		l0.098,0.295c0.162,0.554,0.353,1.095,0.548,1.635l6.474,19.319h-81.453v81.299l-18.863-6.32c-0.157-0.057-0.318-0.104-0.476-0.16
		c18.576,26.911,57.677,81.594,96.969,124.38h4.909l-5.769-17.217c-0.195-0.54-0.386-1.081-0.548-1.635l-0.099-0.295l0.022-0.008
		c-0.655-2.344-1.032-4.804-1.032-7.358c0-15.091,12.234-27.325,27.325-27.325c15.091,0,27.324,12.235,27.324,27.325
		c0,2.554-0.376,5.014-1.031,7.358l0.02,0.008l-0.099,0.295c-0.161,0.555-0.352,1.096-0.548,1.635l-5.769,17.217h75.903v-0.001
		v-79.458L1206.406,1394.699z"/>
	<path style="fill:#3F5EA8;" d="M986.25,1348.915l18.863,6.32v-81.299h-70.282c12.898,19.684,26.159,39.132,39.762,58.343
		c0,0,4.116,6.242,11.18,16.476C985.931,1348.812,986.093,1348.858,986.25,1348.915z"/>
	<path style="fill:#3F5EA8;" d="M878.799,1492.454c-0.196,0.538-0.386,1.079-0.548,1.635l-0.099,0.294l0.021,0.008
		c-0.651,2.334-1.026,4.783-1.029,7.323l0.017,0.398c0.008,0.578,0.043,1.149,0.087,1.716c0.043,0.578,0.132,1.141,0.211,1.708
		c0.14,1.007,0.395,1.974,0.642,2.941c0.19,0.745,0.465,1.456,0.714,2.176c3.157,8.672,10.447,15.275,19.253,17.45
		c1.611,0.397,3.266,0.665,4.96,0.752c10.336,0.53,19.469-4.705,24.542-12.756c-15.138-26.888-31.201-60.175-41.478-94.957
		l1.006-1.01c-11.02,10.44-22.115,20.801-33.33,31.033c-8.297,7.396-16.675,14.7-25.082,21.971h56.587L878.799,1492.454z"/>
	<path style="fill:#3F5EA8;" d="M930.682,1252.983l0.099-0.295l-0.02-0.008c0.654-2.344,1.031-4.805,1.031-7.357
		c0-7.546-3.058-14.378-8.004-19.323c-1.236-1.236-2.59-2.354-4.044-3.336c-3.635-2.455-7.891-4.061-12.484-4.527
		c-0.918-0.092-1.85-0.141-2.794-0.141c-1.549,0-3.054,0.168-4.533,0.416c8.952,14.86,18.135,29.579,27.535,44.161l2.666-7.956
		C930.33,1254.078,930.521,1253.537,930.682,1252.983z"/>
	<path style="fill:#E8395B;" d="M904.466,1529.074c-2.209,0-4.344-0.291-6.399-0.785c-9.067-2.184-16.245-8.926-19.253-17.636
		c-0.249-0.72-0.524-1.43-0.714-2.176c-0.247-0.967-0.501-1.934-0.642-2.941c-0.079-0.567-0.168-1.13-0.211-1.708
		c-0.044-0.567-0.079-1.138-0.087-1.716l-0.018-0.363l0.001-0.035c0.004-2.54,0.378-4.988,1.029-7.323l-0.021-0.008l0.099-0.294
		c0.162-0.556,0.352-1.097,0.548-1.635l6.473-19.319h-56.587c-7.741,6.697-15.551,13.311-23.383,19.899v61.552l-1.482-0.496v0.04
		l-17.952-6.016c-0.54-0.196-1.081-0.386-1.635-0.548l-0.294-0.098l-0.008,0.021c-2.323-0.65-4.762-1.022-7.291-1.029
		c-15.545,0.027-28.046,13.034-27.24,28.762c0.578,11.281,8.367,21.094,19.114,24.576c1.995,0.646,3.951,1.027,5.864,1.198
		c0.724,0.058,1.45,0.111,2.188,0.111l0.136-0.005c2.507-0.013,4.924-0.383,7.229-1.028l0.008,0.022l0.294-0.099
		c0.555-0.162,1.095-0.352,1.635-0.549l17.952-6.014v0.039l1.482-0.496v81.451h34.458c12.576-8.829,25.058-17.791,37.445-26.885
		c-0.037-0.571-0.063-1.147-0.063-1.729c0-4.718,1.195-9.154,3.298-13.026c4.628-8.517,13.652-14.3,24.027-14.3
		c0.944,0,1.876,0.047,2.794,0.141c2.262,0.229,4.438,0.74,6.502,1.487c18.064-13.853,35.876-28.03,53.492-42.449
		c-0.315-0.411-19.1-25.021-39.627-61.465C922.799,1523.922,914.245,1529.074,904.466,1529.074z"/>
	<path style="fill:#3F5EA8;" d="M904.466,1618.487c-10.375,0-19.399,5.782-24.027,14.3c-2.103,3.872-3.298,8.309-3.298,13.026
		c0,0.582,0.025,1.157,0.063,1.729c12.28-9.015,24.468-18.155,36.558-27.427c-2.064-0.746-4.241-1.258-6.502-1.487
		C906.342,1618.535,905.41,1618.487,904.466,1618.487z"/>
	<path style="fill:#3F5EA8;" d="M805.302,1698.102c11.557-7.788,23.052-15.666,34.458-23.675h-34.458V1698.102z"/>
	<path style="fill:#E8395B;" d="M604.01,1643.554c-15.928,10.521-32.026,20.777-48.225,30.873h48.225V1643.554z"/>
	<path style="fill:#71CBF4;" d="M803.82,1674.427h-79.97l6.473-19.319c0.195-0.539,0.386-1.08,0.547-1.634l0.099-0.295l-0.02-0.01
		c0.654-2.344,1.031-4.804,1.031-7.356c0-0.959-0.051-1.906-0.148-2.838l-0.144-0.94c-0.083-0.609-0.161-1.219-0.285-1.815
		l-0.276-1.074c-0.133-0.531-0.257-1.065-0.421-1.583l-0.4-1.093c-0.178-0.486-0.345-0.977-0.549-1.45l-0.517-1.075
		c-0.219-0.45-0.429-0.906-0.669-1.341l-0.631-1.039l-0.779-1.235l-0.738-0.988l-0.881-1.131l-0.834-0.917l-0.981-1.031
		l-0.922-0.839l-1.073-0.926l-1.004-0.75l-1.157-0.815l-1.078-0.656l-1.236-0.697l-1.145-0.551l-1.304-0.573l-1.208-0.441
		c-0.451-0.158-0.904-0.307-1.365-0.441l-1.263-0.325c-0.47-0.11-0.94-0.213-1.417-0.301l-1.313-0.199
		c-0.484-0.063-0.971-0.116-1.464-0.154c-0.448-0.036-0.898-0.057-1.352-0.069l-0.767-0.039l-0.743,0.037
		c-0.526,0.013-1.05,0.036-1.567,0.08l-0.808,0.073c-0.57,0.066-1.134,0.156-1.695,0.26c-11.365,2.023-20.276,11.058-22.126,22.482
		l-0.114,0.746l-0.15,1.252c-0.073,0.789-0.117,1.571-0.118,2.343l-0.003,0.052l0.038,1.043l0.029,0.808l0.122,1.155l0.077,0.719
		l0.221,1.25l0.104,0.587c0.129,0.606,0.275,1.203,0.44,1.794l-0.021,0.01l0.098,0.295c0.162,0.554,0.353,1.095,0.548,1.634
		l6.474,19.319H604.01v81.3l-18.863-6.32c-0.54-0.196-1.081-0.387-1.636-0.55l-0.293-0.097l-0.01,0.019
		c-2.344-0.654-4.804-1.03-7.358-1.03c-15.09,0-27.325,12.234-27.325,27.324c0,1.959,0.226,3.865,0.617,5.708
		c26.844,8.022,56.33,9.592,83.795,5.064c10.674-2.277,21.349-4.553,32.024-6.83c18.473-5.117,35.6-13.091,51.383-23.92
		c30.127-18.251,59.754-37.311,88.958-56.993v-23.675H803.82z"/>
	<path style="fill:#3F5EA8;" d="M575.85,1747.749c2.553,0,5.013,0.376,7.358,1.03l0.01-0.019l0.293,0.097
		c0.556,0.163,1.097,0.353,1.636,0.55l18.863,6.32v-81.3h-48.225c-8.047,5.016-16.066,10.073-24.175,14.986
		c-15.195,9.205-32.004,30.792-29.298,49.987c2.821,20.021,24.764,34.224,41.972,39.944c1.598,0.531,3.241,0.953,4.86,1.438
		c-0.392-1.844-0.617-3.749-0.617-5.708C548.525,1759.983,560.76,1747.749,575.85,1747.749z"/>
	<path style="fill:#E8395B;" d="M1185.4,347.605c-0.54-0.196-1.081-0.386-1.636-0.548l-0.294-0.097l-0.009,0.019
		c-2.344-0.655-4.805-1.032-7.358-1.032c-15.091,0-27.325,12.235-27.325,27.325c0,15.091,12.234,27.325,27.325,27.325
		c2.553,0,5.013-0.376,7.358-1.032l0.009,0.022l0.294-0.099c0.555-0.161,1.096-0.352,1.636-0.547l17.952-6.015v80.993h3.054h78.398
		l-6.474-19.318c-0.195-0.539-0.386-1.08-0.548-1.634l-0.098-0.294l0.021-0.01c-0.491-1.758-0.825-3.582-0.961-5.46
		c-0.046-0.626-0.07-1.259-0.07-1.897c0-4.717,1.195-9.153,3.299-13.026c4.627-8.517,13.651-14.3,24.026-14.3
		c0.943,0,1.875,0.049,2.793,0.141c4.593,0.467,8.85,2.072,12.484,4.527c1.454,0.982,2.807,2.1,4.044,3.338
		c4.944,4.944,8.003,11.775,8.003,19.321c0,2.552-0.376,5.012-1.031,7.357l0.021,0.01l-0.099,0.294
		c-0.162,0.554-0.352,1.095-0.548,1.634l-6.473,19.318h81.452v-81.451l9.15,3.066c-17.932-16.107-36.754-30.834-57.859-43.03
		c-15.397-8.897-31.426-17.159-47.898-24.345c-1.328,0.199-2.656,0.407-4.039,0.407c-8.65,0-16.269-4.098-21.276-10.371
		c-5.333-1.869-10.69-3.651-16.095-5.226c-21.18-6.177-42.111-10.913-63.276-14.259v54.91L1185.4,347.605z"/>
	<path style="fill:#71CBF4;" d="M1404.644,555.219l-18.864-6.322c-0.539-0.195-1.08-0.385-1.634-0.547l-0.294-0.099l-0.009,0.02
		c-2.343-0.655-4.804-1.031-7.357-1.031c-15.091,0-27.325,12.234-27.325,27.326c0,15.09,12.234,27.324,27.325,27.324
		c2.553,0,5.014-0.376,7.357-1.031l0.009,0.02l0.294-0.098c0.555-0.162,1.096-0.353,1.634-0.549l18.864-6.321v79.206h82.538
		l-5.769-17.217c-0.196-0.541-0.386-1.082-0.548-1.637l-0.098-0.294l0.021-0.009c-0.655-2.345-1.032-4.804-1.032-7.359
		c0-15.09,12.235-27.324,27.325-27.324c15.09,0,27.325,12.234,27.325,27.324c0,2.554-0.377,5.014-1.031,7.359l0.021,0.009
		l-0.099,0.294c-0.162,0.555-0.353,1.096-0.548,1.637l-5.769,17.217h14.852c-2.245-36.046-8.632-71.82-19.781-106.182
		c-10.477-32.288-24.076-63.959-41.75-93.018h-75.658V555.219z"/>
	<path style="fill:#3F5EA8;" d="M1271.991,582.427c17.761,46.744,26.282,96.342,27.205,146.187c1.56,0.278,3.161,0.444,4.802,0.444
		c15.09,0,27.324-12.234,27.324-27.325l-0.004-0.107c-0.011-2.514-0.382-4.941-1.027-7.25l0.021-0.01l-0.099-0.295
		c-0.162-0.554-0.352-1.094-0.548-1.634l-6.473-19.318h15.182h66.27v-79.206l-18.864,6.321c-0.539,0.196-1.08,0.387-1.634,0.549
		l-0.294,0.098l-0.009-0.02c-2.343,0.655-4.804,1.031-7.357,1.031c-15.091,0-27.325-12.234-27.325-27.324
		c0-15.092,12.234-27.326,27.325-27.326c2.553,0,5.014,0.376,7.357,1.031l0.009-0.02l0.294,0.099
		c0.555,0.162,1.096,0.353,1.634,0.547l18.864,6.322v-81.301h-81.452l6.473-19.318c0.196-0.539,0.386-1.08,0.548-1.634l0.099-0.294
		l-0.021-0.01c0.655-2.344,1.031-4.804,1.031-7.357c0-7.546-3.059-14.377-8.003-19.321c-1.237-1.238-2.59-2.356-4.044-3.338
		c-3.635-2.455-7.891-4.059-12.484-4.527c-0.918-0.092-1.85-0.141-2.793-0.141c-10.376,0-19.4,5.783-24.026,14.3
		c-2.104,3.873-3.299,8.309-3.299,13.026c0,0.638,0.024,1.271,0.07,1.897c0.136,1.878,0.47,3.702,0.961,5.46l-0.021,0.01
		l0.098,0.294c0.162,0.554,0.353,1.095,0.548,1.634l6.474,19.318h-78.398h-3.054v6.957
		C1232.604,509.981,1255.345,544.704,1271.991,582.427z"/>
	<path style="fill:#E8395B;" d="M1323.192,673.119l6.473,19.318c0.196,0.54,0.386,1.08,0.548,1.634l0.099,0.295l-0.021,0.01
		c0.646,2.309,1.016,4.736,1.027,7.25l0.004,0.107c0,15.091-12.234,27.325-27.324,27.325c-1.641,0-3.242-0.166-4.802-0.444
		c0.341,18.417-0.324,36.867-1.987,55.221c-1.661,12.807-3.847,25.498-6.422,38.094c3.921-2.176,8.408-3.458,13.211-3.458
		c0.943,0,1.875,0.048,2.793,0.141c4.593,0.466,8.85,2.07,12.484,4.527c1.454,0.981,2.807,2.1,4.044,3.336
		c4.944,4.945,8.003,11.777,8.003,19.322c0,2.554-0.376,5.014-1.031,7.358l0.021,0.009l-0.099,0.295
		c-0.162,0.556-0.352,1.096-0.548,1.635l-6.473,19.319h81.452v-81.451l19.318,6.474c0.54,0.195,1.08,0.385,1.635,0.548l0.294,0.097
		l0.009-0.02c0.587,0.164,1.18,0.31,1.78,0.438c1.2,0.253,2.428,0.433,3.681,0.524c0.627,0.047,1.259,0.069,1.896,0.069
		c0.959,0,1.905-0.052,2.838-0.149l0.941-0.143c0.608-0.083,1.218-0.162,1.813-0.284l1.075-0.276
		c0.531-0.133,1.065-0.256,1.583-0.42l1.092-0.4c0.487-0.178,0.978-0.347,1.452-0.55l1.073-0.516
		c0.451-0.219,0.906-0.429,1.341-0.671l1.039-0.629l1.235-0.781l0.987-0.737l1.131-0.882l0.918-0.834l1.032-0.981l0.837-0.92
		l0.928-1.075l0.75-1.005l0.814-1.156l0.656-1.08l0.696-1.233l0.553-1.146l0.572-1.304l0.443-1.208
		c0.156-0.451,0.307-0.902,0.44-1.363l0.325-1.265c0.111-0.469,0.214-0.94,0.3-1.417l0.201-1.312
		c0.063-0.486,0.117-0.973,0.155-1.466c0.034-0.448,0.056-0.898,0.068-1.354l0.038-0.765l-0.037-0.744
		c-0.014-0.525-0.035-1.047-0.079-1.565l-0.073-0.811c-0.067-0.57-0.156-1.133-0.258-1.694
		c-2.025-11.366-11.06-20.276-22.485-22.127l-0.746-0.114l-1.251-0.15c-0.789-0.072-1.571-0.117-2.342-0.118l-0.052-0.003
		l-1.043,0.038l-0.808,0.029l-1.133,0.119l-0.744,0.079l-1.226,0.216l-0.609,0.108c-0.605,0.129-1.204,0.276-1.794,0.44
		l-0.009-0.021l-0.294,0.099c-0.555,0.162-1.096,0.353-1.635,0.547l-19.318,6.475v-81.451h-66.27H1323.192z"/>
	<path style="fill:#E8395B;" d="M1280.875,862.688c-1.104,3.921-2.256,7.825-3.438,11.722h7.367L1280.875,862.688z"/>
	<path style="fill:#71CBF4;" d="M1527.059,829.328l-0.882-1.133l-0.835-0.918l-0.981-1.032l-0.922-0.837l-1.074-0.928l-1.004-0.75
		l-1.156-0.814l-1.079-0.654l-1.235-0.698l-1.145-0.552l-1.305-0.571l-1.208-0.443c-0.451-0.157-0.904-0.308-1.365-0.441
		l-1.263-0.325c-0.468-0.112-0.939-0.214-1.417-0.301l-1.313-0.2c-0.485-0.064-0.972-0.118-1.465-0.155
		c-0.448-0.035-0.898-0.055-1.352-0.068l-0.767-0.039l-0.742,0.038c-0.527,0.014-1.05,0.035-1.568,0.079l-0.808,0.074
		c-0.57,0.066-1.134,0.156-1.695,0.26c-11.365,2.023-20.276,11.059-22.126,22.483l-0.114,0.746l-0.151,1.251
		c-0.073,0.788-0.117,1.57-0.118,2.342l-0.002,0.052l0.037,1.045l0.029,0.807l0.122,1.156l0.078,0.718l0.22,1.251l0.105,0.587
		c0.128,0.606,0.275,1.202,0.439,1.794l-0.02,0.009l0.098,0.295c0.162,0.556,0.353,1.096,0.549,1.635l6.473,19.319h-81.452v81.301
		l-18.864-6.322c-0.539-0.195-1.08-0.385-1.634-0.547l-0.294-0.099l-0.009,0.02c-2.343-0.655-4.804-1.031-7.357-1.031
		c-15.091,0-27.325,12.234-27.325,27.325c0,15.091,12.234,27.325,27.325,27.325c2.553,0,5.014-0.377,7.357-1.032l0.009,0.02
		l0.294-0.099c0.555-0.161,1.096-0.351,1.634-0.548l18.864-6.321v78.241h19.152c28.528-46.015,54.401-93.866,74.478-144.091
		c12.748-31.891,22.642-64.458,29.909-97.625l-0.388-0.615L1527.059,829.328z"/>
	<path style="fill:#3F5EA8;" d="M1329.666,855.091c0.196-0.539,0.386-1.079,0.548-1.635l0.099-0.295l-0.021-0.009
		c0.655-2.344,1.031-4.804,1.031-7.358c0-7.544-3.059-14.376-8.003-19.322c-1.237-1.236-2.59-2.354-4.044-3.336
		c-3.635-2.456-7.891-4.06-12.484-4.527c-0.918-0.093-1.85-0.141-2.793-0.141c-4.803,0-9.29,1.282-13.211,3.458
		c-2.802,13.718-6.121,27.306-9.912,40.759l3.928,11.722h-7.367c-8.103,26.705-18.003,52.87-29.334,78.443
		c6.937,4.952,11.491,13.028,11.491,22.203c0,15.014-12.114,27.193-27.102,27.313l-0.223,0.012c-2.553,0-5.013-0.377-7.358-1.032
		l-0.009,0.02l-0.23-0.077c-6.605,12.612-13.474,25.083-20.629,37.367l-0.692,1.099v32.885h82.768l-6.242,15.477l-1.549,3.842
		c-0.195,0.54-0.386,1.082-0.548,1.635l-0.098,0.295l0.021,0.007c-0.536,1.923-0.824,3.937-0.933,6.001l-0.044,0.614l-0.054,0.744
		l0.018,0.357c0.193,14.925,12.336,26.969,27.307,26.969c15.09,0,27.093-12.367,27.093-27.457c0-2.408-0.357-4.726-0.945-6.948
		l-0.086-0.41l0.02-0.009l-0.099-0.295c-0.162-0.555-0.352-1.095-0.547-1.634l-1.021-2.824l-5.913-16.363h82.144v-78.241
		l-18.864,6.321c-0.539,0.197-1.08,0.387-1.634,0.548l-0.294,0.099l-0.009-0.02c-2.343,0.655-4.804,1.032-7.357,1.032
		c-15.091,0-27.325-12.234-27.325-27.325c0-15.091,12.234-27.325,27.325-27.325c2.553,0,5.014,0.377,7.357,1.031l0.009-0.02
		l0.294,0.099c0.555,0.162,1.096,0.353,1.634,0.547l18.864,6.322V874.41h-81.452L1329.666,855.091z"/>
	<path style="fill:#3F5EA8;" d="M1605.937,1723.14v31.944l13.2-4.423c0.747-7.663-1.006-15.217-7.216-21.474
		C1609.923,1727.175,1607.933,1725.153,1605.937,1723.14z"/>
	<path style="fill:#E8395B;" d="M1404.644,1072.644H1322.5l5.913,16.363l1.021,2.824c0.195,0.54,0.386,1.08,0.547,1.634l0.099,0.295
		l-0.02,0.009l0.086,0.41c0.588,2.223,0.945,4.54,0.945,6.948c0,15.09-12.003,27.457-27.093,27.457
		c-14.971,0-27.114-12.044-27.307-26.969l-0.018-0.357l0.054-0.744l0.044-0.614c0.109-2.064,0.398-4.078,0.933-6.001l-0.021-0.007
		l0.098-0.295c0.162-0.554,0.353-1.095,0.548-1.635l1.549-3.842l6.242-15.477h-82.768v3.058v38.945
		c67.501,67.689,130.389,85.865,131.457,86.169c23.009-29.994,45.18-60.636,65.987-92.167c1.297-1.965,2.559-3.96,3.848-5.931
		v-27.016V1072.644z"/>
	<path style="fill:#3F5EA8;" d="M1206.406,1273.937h-3.054v81.553l3.054-1.023l16.569-5.552c0.539-0.196,1.08-0.387,1.635-0.547
		l0.295-0.1l0.008,0.021c2.344-0.656,4.805-1.031,7.358-1.031l0.223,0.011c14.988,0.12,27.102,12.298,27.102,27.313
		c0,15.016-12.114,27.194-27.102,27.315l-0.223,0.011c-2.553,0-5.013-0.377-7.358-1.032l-0.009,0.021l-0.294-0.098
		c-0.555-0.163-1.096-0.353-1.635-0.547l-16.569-5.554l-3.054-1.022v79.458h81.452l-6.474,19.319
		c-0.195,0.538-0.386,1.079-0.548,1.635l-0.098,0.294l0.021,0.008c-0.651,2.334-1.026,4.783-1.03,7.323l-0.001,0.035l0.018,0.363
		c0.008,0.578,0.044,1.149,0.087,1.716c0.043,0.578,0.133,1.141,0.212,1.708c1.848,13.292,13.207,23.538,27.008,23.538
		c15.09,0,27.324-12.233,27.324-27.325l-0.004-0.107c-0.011-2.514-0.382-4.94-1.027-7.251l0.021-0.008l-0.099-0.294
		c-0.162-0.556-0.352-1.097-0.548-1.635l-6.473-19.319h6.92h39.694c-6.354-7.247-12.739-14.469-19.03-21.774
		c-38.112-44.244-74.986-89.647-110.11-136.347c-12.062-14.009-23.135-27.794-33.247-41.077H1206.406z"/>
	<path style="fill:#E8395B;" d="M1278.329,1655.108c-0.195-0.539-0.386-1.08-0.548-1.634l-0.098-0.295l0.021-0.01
		c-0.491-1.758-0.825-3.582-0.961-5.461c-0.046-0.626-0.07-1.258-0.07-1.896c0-4.718,1.195-9.154,3.299-13.026
		c4.627-8.517,13.651-14.3,24.026-14.3c0.943,0,1.875,0.047,2.793,0.141c4.593,0.466,8.85,2.069,12.484,4.525
		c1.454,0.982,2.807,2.101,4.044,3.337c4.944,4.946,8.003,11.777,8.003,19.323c0,2.552-0.376,5.012-1.031,7.356l0.021,0.01
		l-0.099,0.295c-0.162,0.554-0.352,1.095-0.548,1.634l-6.473,19.319h81.452v-81.451l19.318,6.472c0.54,0.197,1.08,0.387,1.635,0.549
		l0.294,0.099l0.009-0.022c0.587,0.165,1.18,0.311,1.78,0.438c1.2,0.255,2.428,0.434,3.681,0.525
		c0.627,0.046,1.259,0.069,1.896,0.069c0.959,0,1.905-0.051,2.838-0.147l0.941-0.144c0.608-0.085,1.218-0.161,1.813-0.286
		l1.075-0.276c0.531-0.132,1.065-0.256,1.583-0.42l1.092-0.4c0.487-0.178,0.978-0.344,1.452-0.549l1.073-0.518
		c0.451-0.217,0.906-0.427,1.341-0.668l1.039-0.631l1.235-0.779l0.987-0.738l1.131-0.881l0.918-0.834l1.032-0.982l0.837-0.92
		l0.928-1.075l0.75-1.005l0.814-1.156l0.656-1.081l0.696-1.233l0.553-1.148l0.572-1.302l0.443-1.21
		c0.156-0.45,0.307-0.902,0.44-1.363l0.325-1.266c0.111-0.469,0.214-0.938,0.3-1.417l0.201-1.311
		c0.063-0.486,0.117-0.972,0.155-1.465c0.034-0.449,0.056-0.898,0.068-1.353l0.038-0.766l-0.037-0.743v-0.005v0
		c-8.229-8.775-16.425-17.581-24.585-26.419l-0.307-0.037c-0.789-0.072-1.571-0.116-2.342-0.118l-0.052-0.002l-1.043,0.038
		l-0.808,0.03l-1.133,0.119l-0.744,0.08l-1.226,0.215l-0.609,0.11c-0.605,0.127-1.204,0.274-1.794,0.44l-0.009-0.021l-0.294,0.098
		c-0.555,0.163-1.096,0.353-1.635,0.548l-19.318,6.473v-42.274c-11.709-12.972-23.316-26.036-34.838-39.177h-39.694h-6.92
		l6.473,19.319c0.196,0.538,0.386,1.079,0.548,1.635l0.099,0.294l-0.021,0.008c0.646,2.312,1.016,4.738,1.027,7.251l0.004,0.107
		c0,15.092-12.234,27.325-27.324,27.325c-13.801,0-25.16-10.246-27.008-23.538c-0.079-0.567-0.169-1.13-0.212-1.708
		c-0.043-0.567-0.079-1.138-0.087-1.716l-0.018-0.363l0.001-0.035c0.004-2.54,0.379-4.988,1.03-7.323l-0.021-0.008l0.098-0.294
		c0.162-0.556,0.353-1.097,0.548-1.635l6.474-19.319h-81.452v0.001v2.094v78.9l-17.952-6.016c-0.54-0.196-1.081-0.386-1.636-0.548
		l-0.294-0.098l-0.009,0.021c-2.344-0.655-4.805-1.031-7.358-1.031c-8.65,0-16.267,4.097-21.274,10.369
		c12.092,13.623,24.272,27.166,36.557,40.617l11.966-4.01v17.094c19.785,21.482,39.783,42.77,59.946,63.899h21.506
		L1278.329,1655.108z"/>
	<path style="fill:#71CBF4;" d="M1605.937,1723.14c-16.053-16.189-32.059-32.426-48.018-48.713h-33.434l6.474-19.319
		c0.195-0.539,0.386-1.08,0.548-1.634l0.098-0.295l-0.02-0.01c0.437-1.568,0.692-3.205,0.851-4.87
		c-9.599-9.884-19.172-19.792-28.71-29.733l-0.746,0.037l-0.808,0.073c-0.57,0.066-1.134,0.156-1.695,0.26
		c-11.365,2.023-20.276,11.058-22.126,22.482l-0.114,0.746l-0.151,1.252c-0.073,0.789-0.117,1.571-0.118,2.343l-0.002,0.052
		l0.037,1.043l0.029,0.808l0.122,1.155l0.078,0.719l0.22,1.25l0.105,0.587c0.128,0.606,0.275,1.203,0.439,1.794l-0.02,0.01
		l0.098,0.295c0.162,0.554,0.353,1.095,0.549,1.634l6.473,19.319h-81.452v81.3l-18.864-6.32c-0.539-0.196-1.08-0.387-1.634-0.55
		l-0.294-0.097l-0.009,0.019c-2.343-0.654-4.804-1.03-7.357-1.03c-11.443,0-21.214,7.048-25.283,17.029
		c10.284,10.427,20.528,20.893,30.845,31.286c1.237,1.654,2.597,3.13,3.959,4.603l18.638-6.245v19.206
		c0.755,0.313,1.45,0.712,2.226,0.994c11.225,6.389,23.374,10.245,36.444,11.567c14.931,2.577,29.869,2.979,44.815,1.298
		c4.915-4.747,11.579-7.699,18.952-7.699c5.084,0,9.786,1.481,13.863,3.899c5.71-1.179,11.394-2.543,17.024-4.3
		c9.386-3.502,18.773-7.003,28.16-10.505c15.544-6.817,29.022-16.471,40.433-28.965c5.72-7.888,11.545-18.676,12.576-29.255
		l-13.2,4.423V1723.14z"/>
	<path style="fill:#3F5EA8;" d="M1386.006,1800.667c5.269,5.69,11.489,10,18.638,12.96v-19.206L1386.006,1800.667z"/>
	<path style="fill:#3F5EA8;" d="M1376.485,1747.749c2.553,0,5.014,0.376,7.357,1.03l0.009-0.019l0.294,0.097
		c0.555,0.163,1.096,0.353,1.634,0.55l18.864,6.32v-81.3h-81.452l6.473-19.319c0.196-0.539,0.386-1.08,0.548-1.634l0.099-0.295
		l-0.021-0.01c0.655-2.344,1.031-4.804,1.031-7.356c0-7.546-3.059-14.377-8.003-19.323c-1.237-1.235-2.59-2.354-4.044-3.337
		c-3.635-2.456-7.891-4.059-12.484-4.525c-0.918-0.094-1.85-0.141-2.793-0.141c-10.376,0-19.4,5.782-24.026,14.3
		c-2.104,3.872-3.299,8.309-3.299,13.026c0,0.638,0.024,1.27,0.07,1.896c0.136,1.879,0.47,3.703,0.961,5.461l-0.021,0.01
		l0.098,0.295c0.162,0.554,0.353,1.095,0.548,1.634l6.474,19.319h-21.506c18.905,19.813,37.937,39.502,57.073,59.081
		c10.231,10.468,20.551,20.85,30.831,31.271C1355.27,1754.797,1365.042,1747.749,1376.485,1747.749z"/>
	<path style="fill:#1F3B70;" d="M985.773,1348.756c-7.064-10.234-11.18-16.476-11.18-16.476l-87.496,87.851l-1.006,1.01
		c10.277,34.782,26.341,68.069,41.478,94.957c0.019,0.034,0.039,0.069,0.058,0.103c20.527,36.444,39.312,61.054,39.627,61.465
		c0.002,0.004,0.025,0.033,0.025,0.033c69.878-54.838,117.259-102.602,117.259-102.602c-0.599-0.647-1.197-1.311-1.796-1.963
		C1043.45,1430.35,1004.349,1375.667,985.773,1348.756z"/>
	<path style="fill:#1F3B70;" d="M1203.352,1114.647c-9.356-9.382-18.798-19.694-28.177-31.063c0,0-0.364,0.512-0.887,1.246
		c-5.134,7.206-33.385,46.861-45.801,64.521c-0.004,0.006-0.008,0.012-0.012,0.018c0,0,24.909,52.519,74.878,119.184
		c1.338,1.785,2.693,3.579,4.067,5.383c10.113,13.283,21.185,27.068,33.247,41.077c0,0,73.761-81.121,94.2-114.181
		c0,0-0.048-0.014-0.057-0.016C1333.741,1200.512,1270.853,1182.337,1203.352,1114.647z"/>
</g>
</svg>
